<svg width="224" height="512" viewBox="0 0 224 512" fill="none" xmlns="http://www.w3.org/2000/svg">
<g filter="url(#filter0_ii_1_568)">
<rect x="4" width="216" height="290" rx="20" fill="white"/>
</g>
<g clip-path="url(#clip0_1_568)">
<path d="M118.494 85.0654C118.262 85.1316 117.715 85.1979 117.284 85.2145C115.561 85.2476 109.994 86.6557 107.973 87.5503C107.791 87.6331 107.277 87.8485 106.813 88.0307C105.603 88.4946 102.406 90.0187 101.909 90.3831C101.677 90.5322 101.296 90.731 101.047 90.7807C100.799 90.847 100.6 90.963 100.6 91.0292C100.6 91.0955 100.467 91.1949 100.318 91.2611C100.152 91.3108 99.8045 91.5096 99.5228 91.6919C99.2577 91.8741 98.8601 92.0895 98.6447 92.1889C98.4293 92.2717 98.0151 92.5367 97.7168 92.7687C97.4186 93.0006 97.1204 93.1828 97.0707 93.1828C96.6896 93.1828 91.3545 97.0593 89.8468 98.4178C88.6207 99.5277 86.3508 101.946 86.3508 102.145C86.3508 102.195 86.2017 102.427 86.0029 102.642C85.5058 103.205 84.0147 105.558 83.5839 106.436C83.4016 106.85 83.0371 107.579 82.8052 108.076C81.9933 109.733 81.6619 111.538 81.7448 113.642C81.8442 115.713 82.3081 116.79 83.7164 118.214C85.191 119.689 86.765 120.335 89.2503 120.467C90.9569 120.55 92.183 120.418 93.8895 119.937C94.4363 119.788 95.1653 119.606 95.5132 119.507C95.8612 119.424 96.2588 119.291 96.4245 119.192C96.8056 118.993 98.9429 118.032 99.0423 118.032C99.3406 118.032 102.837 115.895 106.067 113.742C108.205 112.317 110.077 111.074 110.243 110.992C110.392 110.892 111.402 110.296 112.479 109.65C113.556 109.02 114.882 108.258 115.429 107.976C115.975 107.695 116.754 107.281 117.168 107.065C117.583 106.867 118.361 106.502 118.908 106.303C119.455 106.088 120.134 105.806 120.399 105.69C120.681 105.574 121.078 105.392 121.31 105.293C121.957 105.028 123.415 104.763 124.84 104.663C127.921 104.464 130.075 105.823 131.185 108.672C131.45 109.351 131.5 109.915 131.5 111.903C131.5 114.321 131.285 115.647 130.639 117.204C130.506 117.519 130.324 117.966 130.224 118.198C129.396 120.186 127.689 123.035 125.734 125.62C123.879 128.104 119.886 132.229 117.251 134.4C116.34 135.162 115.329 135.99 115.014 136.255C114.319 136.835 113.507 137.415 112.612 138.011C112.247 138.243 111.651 138.641 111.286 138.906C110.259 139.601 107.525 141.059 105.985 141.722C105.537 141.921 104.924 142.186 104.626 142.318C104.344 142.451 103.963 142.55 103.781 142.55C103.615 142.55 103.234 142.633 102.936 142.732C101.859 143.114 100.765 142.385 100.765 141.275C100.765 139.916 101.412 139.055 105.487 135.013C109.895 130.639 110.375 129.993 110.375 128.336C110.375 126.63 109.563 125.47 107.741 124.543C106.946 124.129 106.647 124.079 105.256 124.079C103.632 124.079 102.687 124.311 101.511 125.023C101.246 125.189 100.832 125.404 100.6 125.52C100.368 125.636 100.152 125.769 100.103 125.818C100.053 125.868 99.7216 126.117 99.3571 126.398C98.479 127.061 96.9381 128.635 96.06 129.778C95.447 130.573 94.9996 131.318 93.9558 133.273C93.0942 134.897 92.3155 137.912 92.3155 139.668C92.3155 143.229 94.1712 146.079 97.0375 146.891C97.8991 147.139 101.412 147.139 102.621 146.907C103.814 146.659 106.929 145.698 107.128 145.516C107.227 145.433 107.393 145.367 107.525 145.367C107.956 145.367 112.877 142.865 114.567 141.772C114.948 141.523 115.379 141.242 115.545 141.142C115.694 141.059 116.472 140.579 117.284 140.082C118.08 139.585 118.775 139.121 118.825 139.071C118.875 139.005 119.438 138.591 120.068 138.16C120.714 137.713 121.46 137.199 121.725 137.017C122.006 136.818 122.785 136.222 123.464 135.675C127.772 132.246 131.583 128.585 133.803 125.736C134.168 125.288 134.499 124.874 134.549 124.824C134.681 124.725 135.808 123.101 136.587 121.876C136.935 121.362 137.465 120.451 137.763 119.854C138.078 119.258 138.509 118.446 138.724 118.032C138.939 117.618 139.403 116.541 139.768 115.63C140.116 114.719 140.464 113.824 140.53 113.642C140.994 112.466 141.706 109.434 142.021 107.264C142.369 104.812 142.104 100.787 141.425 98.5669C141.143 97.6557 141.077 97.4901 140.464 96.1648C139.138 93.3154 137.017 90.731 134.582 89.0413C134.25 88.8093 133.836 88.4946 133.654 88.3124C133.058 87.7822 130.025 86.4238 128.253 85.9102C127.308 85.6286 125.9 85.3304 125.121 85.2145C123.332 84.9825 119.041 84.8666 118.494 85.0654Z" fill="#FF0000"/>
<path d="M166.526 166.985C166.476 167.019 165.714 167.168 164.803 167.317C163.891 167.449 162.4 167.698 161.489 167.864L159.832 168.145V183.386C159.832 199.936 159.799 199.24 160.777 201.311C161.108 202.023 161.572 202.636 162.284 203.282C164.041 204.889 165.681 205.386 169.177 205.403C172.159 205.403 172.043 205.519 171.977 202.769L171.927 200.781L170.651 200.665C168.382 200.466 167.288 199.555 167.039 197.666C166.973 197.103 166.923 190.013 166.94 181.928C166.957 167.93 166.923 166.588 166.526 166.985Z" fill="#FF0000"/>
<path d="M120.648 167.317C116.97 167.864 115.744 168.095 115.595 168.278C115.479 168.41 115.462 173.695 115.512 183.8C115.595 197.915 115.628 199.19 115.893 199.87C116.522 201.476 116.854 202.04 117.699 202.885C119.439 204.624 121.659 205.336 125.304 205.336C127.325 205.336 127.607 205.303 127.739 205.038C127.905 204.723 127.988 201.841 127.855 201.178C127.756 200.764 127.69 200.748 126.447 200.648C124.873 200.549 123.945 200.019 123.299 198.876L122.885 198.13L122.835 189.549C122.802 183.154 122.835 180.901 122.984 180.719C123.133 180.537 123.697 180.487 125.469 180.487C128.203 180.487 127.971 180.752 127.905 177.588L127.855 175.434L125.536 175.352C124.26 175.302 123.117 175.202 123.017 175.136C122.852 175.037 122.802 174.026 122.802 171.028V167.068L122.437 167.085C122.222 167.102 121.427 167.201 120.648 167.317Z" fill="#FF0000"/>
<path d="M63.238 174.788C61.9954 174.904 59.013 175.617 58.1018 176.014C57.9195 176.097 57.5881 176.213 57.3562 176.279C56.6272 176.478 54.2081 177.687 54.2081 177.853C54.2081 177.936 54.3573 178.317 54.523 178.714C55.6165 181.117 56.0307 181.978 56.1135 181.978C56.1632 181.978 56.3289 181.912 56.4946 181.829C57.3396 181.398 58.3668 180.984 59.1787 180.736C59.6758 180.586 60.2722 180.388 60.5042 180.305C61.432 179.974 63.9007 179.808 65.044 179.99C67.2973 180.355 68.1257 181.398 68.2583 184.065C68.3245 185.54 68.3245 185.573 67.9435 185.672C67.7281 185.739 66.2038 185.788 64.5635 185.788C60.6202 185.788 59.4107 186.02 56.8591 187.263C54.6721 188.323 53.0484 190.327 52.2696 192.912C51.872 194.287 51.9217 196.855 52.369 198.213C53.8602 202.719 57.4059 205.353 62.3433 205.618C66.8334 205.867 71.456 204.525 74.4218 202.139L75.4987 201.261L75.5484 192.498C75.5981 182.342 75.5816 181.995 74.3555 179.51C73.8087 178.383 71.9696 176.594 70.8264 176.097C70.2962 175.849 69.7163 175.6 69.534 175.517C68.2914 174.971 65.1434 174.606 63.238 174.788ZM68.1257 190.758C68.2251 190.891 68.2914 192.862 68.2914 195.248C68.2914 199.952 68.3577 199.654 67.1316 200.3C66.6677 200.549 66.1541 200.599 64.5469 200.615H62.5421L61.7137 200.052C61.2663 199.754 60.7361 199.257 60.5539 198.975C59.3278 197.186 59.4107 193.989 60.703 192.415C61.0841 191.934 62.5421 190.924 62.8072 190.924C62.9729 190.924 63.1552 190.858 63.2546 190.775C63.4865 190.526 64.2487 190.46 66.1872 190.493C67.579 190.51 68.0097 190.559 68.1257 190.758Z" fill="#FF0000"/>
<path d="M104.576 175.186C101.279 175.965 98.6447 177.373 95.9937 179.791L95.2979 180.421V192.514C95.2979 199.157 95.2979 204.724 95.2979 204.889C95.2979 205.154 95.5464 205.171 98.9098 205.138L102.505 205.088L102.555 193.541L102.588 182.011L103.218 181.514C103.963 180.918 104.328 180.736 105.289 180.404C106.432 180.023 108.221 179.841 109.563 179.99C110.226 180.057 110.856 180.09 110.955 180.04C111.071 180.007 111.369 179.444 111.634 178.781C111.883 178.118 112.281 177.257 112.479 176.859C113.026 175.816 112.976 175.551 112.247 175.385C111.9 175.302 111.27 175.153 110.823 175.054C109.646 174.755 106.051 174.838 104.576 175.186Z" fill="#FF0000"/>
<path d="M140.613 175.219C140.066 175.302 139.553 175.451 139.47 175.534C139.37 175.617 139.205 175.683 139.072 175.683C138.94 175.683 138.343 175.915 137.763 176.213C136.487 176.843 134.532 178.648 133.704 179.99C132.975 181.166 132.13 182.922 131.997 183.552C131.931 183.817 131.832 184.198 131.749 184.38C131.683 184.562 131.484 185.275 131.318 185.954C130.871 187.743 130.871 193.475 131.302 195.148C131.699 196.689 132.594 199.041 132.76 199.041C132.842 199.041 132.909 199.124 132.909 199.224C132.909 199.853 134.88 202.355 136.272 203.481C136.885 203.978 138.26 204.69 139.288 205.038C140.398 205.419 142.85 205.833 143.943 205.833C146.296 205.833 150.538 204.823 151.946 203.928C152.277 203.73 152.725 203.498 152.957 203.431C153.454 203.282 154.547 202.603 154.68 202.371C154.829 202.139 152.973 198.379 152.725 198.379C152.609 198.379 152.31 198.528 152.078 198.71C151.846 198.892 151.565 199.041 151.432 199.041C151.316 199.041 151.068 199.141 150.886 199.273C150.703 199.389 149.842 199.737 148.98 200.035C147.506 200.549 147.257 200.582 145.087 200.599C143.032 200.599 142.684 200.565 142.021 200.251C139.702 199.141 138.376 196.341 138.376 192.564C138.376 191.752 138.393 191.073 138.426 191.056C138.443 191.023 142.121 190.974 146.578 190.924L154.696 190.841L154.647 189.184C154.547 185.937 153.686 181.564 152.94 180.57C152.874 180.471 152.642 180.056 152.426 179.642C151.532 177.87 149.643 176.346 147.406 175.6C145.766 175.037 142.767 174.871 140.613 175.219ZM144.175 180.487C144.871 180.669 146.329 181.846 146.329 182.21C146.329 182.309 146.445 182.608 146.578 182.856C146.959 183.602 147.257 186.053 146.992 186.368C146.826 186.584 146.18 186.617 142.833 186.617H138.873L138.774 186.202C138.559 185.358 139.138 183.088 139.801 182.21C140.53 181.233 141.176 180.736 142.137 180.454C142.668 180.305 143.181 180.206 143.297 180.239C143.397 180.272 143.794 180.388 144.175 180.487Z" fill="#FF0000"/>
<path d="M83.5346 163.557C82.2754 164.203 81.8943 164.517 81.3475 165.329C80.8173 166.141 80.8008 166.207 80.8008 167.897V169.653L81.4304 170.514C82.176 171.525 82.673 171.889 83.7665 172.27C85.2411 172.751 86.5169 172.569 87.9915 171.641C89.7644 170.514 90.3774 167.632 89.3004 165.511C88.9194 164.766 88.588 164.418 87.5939 163.788C86.6992 163.209 84.4293 163.076 83.5346 163.557Z" fill="#FF0000"/>
<path d="M87.5939 175.517C87.3288 175.6 86.5833 175.749 85.9371 175.832C85.3075 175.915 84.1477 176.081 83.369 176.197C82.5902 176.296 81.9109 176.445 81.8281 176.495C81.679 176.627 81.6624 204.773 81.795 205.022C81.8612 205.105 83.3358 205.171 85.2743 205.171C88.6543 205.171 88.6709 205.171 88.7537 204.79C88.8034 204.591 88.82 197.898 88.8034 189.93C88.7537 175.567 88.7537 175.434 88.4224 175.401C88.2401 175.385 87.8756 175.434 87.5939 175.517Z" fill="#FF0000"/>
</g>
<g filter="url(#filter1_iif_1_568)">
<rect x="4" y="300" width="216" height="290" rx="20" fill="url(#paint0_linear_1_568)"/>
</g>
<defs>
<filter id="filter0_ii_1_568" x="-4" y="-8" width="232" height="306" filterUnits="userSpaceOnUse" color-interpolation-filters="sRGB">
<feFlood flood-opacity="0" result="BackgroundImageFix"/>
<feBlend mode="normal" in="SourceGraphic" in2="BackgroundImageFix" result="shape"/>
<feColorMatrix in="SourceAlpha" type="matrix" values="0 0 0 0 0 0 0 0 0 0 0 0 0 0 0 0 0 0 127 0" result="hardAlpha"/>
<feMorphology radius="2" operator="erode" in="SourceAlpha" result="effect1_innerShadow_1_568"/>
<feOffset dx="10" dy="-10"/>
<feGaussianBlur stdDeviation="3"/>
<feComposite in2="hardAlpha" operator="arithmetic" k2="-1" k3="1"/>
<feColorMatrix type="matrix" values="0 0 0 0 0.0198497 0 0 0 0 0.0198497 0 0 0 0 0.0198497 0 0 0 0.3 0"/>
<feBlend mode="normal" in2="shape" result="effect1_innerShadow_1_568"/>
<feColorMatrix in="SourceAlpha" type="matrix" values="0 0 0 0 0 0 0 0 0 0 0 0 0 0 0 0 0 0 127 0" result="hardAlpha"/>
<feMorphology radius="2" operator="erode" in="SourceAlpha" result="effect2_innerShadow_1_568"/>
<feOffset dx="-10" dy="10"/>
<feGaussianBlur stdDeviation="3"/>
<feComposite in2="hardAlpha" operator="arithmetic" k2="-1" k3="1"/>
<feColorMatrix type="matrix" values="0 0 0 0 1 0 0 0 0 1 0 0 0 0 1 0 0 0 0.3 0"/>
<feBlend mode="normal" in2="effect1_innerShadow_1_568" result="effect2_innerShadow_1_568"/>
</filter>
<filter id="filter1_iif_1_568" x="-4" y="292" width="232" height="306" filterUnits="userSpaceOnUse" color-interpolation-filters="sRGB">
<feFlood flood-opacity="0" result="BackgroundImageFix"/>
<feBlend mode="normal" in="SourceGraphic" in2="BackgroundImageFix" result="shape"/>
<feColorMatrix in="SourceAlpha" type="matrix" values="0 0 0 0 0 0 0 0 0 0 0 0 0 0 0 0 0 0 127 0" result="hardAlpha"/>
<feMorphology radius="2" operator="erode" in="SourceAlpha" result="effect1_innerShadow_1_568"/>
<feOffset dx="10" dy="10"/>
<feGaussianBlur stdDeviation="3"/>
<feComposite in2="hardAlpha" operator="arithmetic" k2="-1" k3="1"/>
<feColorMatrix type="matrix" values="0 0 0 0 0.0198497 0 0 0 0 0.0198497 0 0 0 0 0.0198497 0 0 0 0.3 0"/>
<feBlend mode="normal" in2="shape" result="effect1_innerShadow_1_568"/>
<feColorMatrix in="SourceAlpha" type="matrix" values="0 0 0 0 0 0 0 0 0 0 0 0 0 0 0 0 0 0 127 0" result="hardAlpha"/>
<feMorphology radius="2" operator="erode" in="SourceAlpha" result="effect2_innerShadow_1_568"/>
<feOffset dx="-10" dy="-10"/>
<feGaussianBlur stdDeviation="3"/>
<feComposite in2="hardAlpha" operator="arithmetic" k2="-1" k3="1"/>
<feColorMatrix type="matrix" values="0 0 0 0 1 0 0 0 0 1 0 0 0 0 1 0 0 0 0.3 0"/>
<feBlend mode="normal" in2="effect1_innerShadow_1_568" result="effect2_innerShadow_1_568"/>
<feGaussianBlur stdDeviation="2" result="effect3_foregroundBlur_1_568"/>
</filter>
<linearGradient id="paint0_linear_1_568" x1="112" y1="300" x2="112" y2="590" gradientUnits="userSpaceOnUse">
<stop stop-color="white"/>
<stop offset="0.0480398" stop-color="white" stop-opacity="0"/>
</linearGradient>
<clipPath id="clip0_1_568">
<rect width="120" height="120.87" fill="white" transform="translate(52 85)"/>
</clipPath>
</defs>
</svg>
