<svg width="1174" height="669" viewBox="0 0 1174 669" fill="none" xmlns="http://www.w3.org/2000/svg">
<path d="M0 32.2C0 20.8102 0 15.1153 2.25173 10.7805C4.14924 7.12765 7.12765 4.14924 10.7805 2.25173C15.1153 0 20.8102 0 32.2 0H1141.8C1153.19 0 1158.88 0 1163.22 2.25173C1166.87 4.14924 1169.85 7.12765 1171.75 10.7805C1174 15.1153 1174 20.8102 1174 32.2V636.8C1174 648.19 1174 653.885 1171.75 658.219C1169.85 661.872 1166.87 664.851 1163.22 666.748C1158.88 669 1153.19 669 1141.8 669H32.1999C20.8102 669 15.1153 669 10.7805 666.748C7.12765 664.851 4.14924 661.872 2.25173 658.219C0 653.885 0 648.19 0 636.8V32.2Z" fill="url(#paint0_radial_432_2949)"/>
<defs>
<radialGradient id="paint0_radial_432_2949" cx="0" cy="0" r="1" gradientUnits="userSpaceOnUse" gradientTransform="translate(587 334.5) rotate(90) scale(439 770.383)">
<stop stop-color="#7FE5E6"/>
<stop offset="1" stop-color="#015758"/>
</radialGradient>
</defs>
</svg>
