<svg width="107" height="44" viewBox="0 0 107 44" fill="none" xmlns="http://www.w3.org/2000/svg">
<path d="M107 1.25589L82.5535 23.2364L73.9563 16.5435L82.2489 31.1036L107 1.25589Z" fill="#008E90"/>
<path d="M1.2642 29.9673V15.4218H11.0653V17.9573H4.33949V21.4233H10.5611V23.9588H4.33949V27.4318H11.0938V29.9673H1.2642ZM16.3938 15.4218L19.3271 20.3792H19.4407L22.3881 15.4218H25.8612L21.4222 22.6946L25.9606 29.9673H22.4237L19.4407 25.0028H19.3271L16.3441 29.9673H12.8214L17.3739 22.6946L12.9066 15.4218H16.3938ZM30.3143 29.9673H27.0188L32.0401 15.4218H36.0032L41.0174 29.9673H37.7219L34.0785 18.7457H33.9648L30.3143 29.9673ZM30.1083 24.25H37.8924V26.6505H30.1083V24.25ZM42.7681 15.4218H46.5607L50.5664 25.1946H50.7369L54.7425 15.4218H58.5352V29.9673H55.5522V20.5H55.4315L51.6673 29.8963H49.636L45.8718 20.4644H45.7511V29.9673H42.7681V15.4218ZM68.9595 19.6051C68.9027 19.0322 68.6589 18.5871 68.228 18.2698C67.7971 17.9526 67.2124 17.794 66.4737 17.794C65.9718 17.794 65.5481 17.865 65.2024 18.0071C64.8568 18.1444 64.5916 18.3361 64.407 18.5823C64.227 18.8286 64.1371 19.1079 64.1371 19.4204C64.1276 19.6808 64.1821 19.9081 64.3004 20.1022C64.4235 20.2964 64.5916 20.4644 64.8047 20.6065C65.0178 20.7438 65.264 20.8645 65.5433 20.9687C65.8227 21.0681 66.121 21.1534 66.4382 21.2244L67.745 21.5369C68.3795 21.6789 68.9619 21.8683 69.4922 22.1051C70.0225 22.3418 70.4818 22.633 70.87 22.9786C71.2583 23.3243 71.5589 23.7315 71.772 24.2002C71.9898 24.669 72.1011 25.2064 72.1058 25.8125C72.1011 26.7026 71.8738 27.4744 71.424 28.1278C70.9789 28.7765 70.335 29.2807 69.4922 29.6406C68.6541 29.9957 67.6432 30.1733 66.4595 30.1733C65.2853 30.1733 64.2625 29.9933 63.3913 29.6335C62.5249 29.2736 61.8478 28.741 61.3601 28.0355C60.8771 27.3252 60.6238 26.4469 60.6001 25.4005H63.576C63.6091 25.8882 63.7488 26.2954 63.995 26.6221C64.246 26.9441 64.5798 27.1879 64.9964 27.3536C65.4179 27.5146 65.8937 27.5951 66.424 27.5951C66.9448 27.5951 67.397 27.5194 67.7805 27.3679C68.1688 27.2163 68.4695 27.0056 68.6825 26.7358C68.8956 26.4659 69.0021 26.1557 69.0021 25.8054C69.0021 25.4786 68.9051 25.204 68.7109 24.9815C68.5215 24.759 68.2422 24.5696 67.8729 24.4133C67.5083 24.2571 67.0608 24.115 66.5305 23.9872L64.9467 23.5894C63.7204 23.2911 62.7521 22.8248 62.0419 22.1903C61.3317 21.5558 60.9789 20.7012 60.9837 19.6264C60.9789 18.7457 61.2133 17.9763 61.6868 17.3181C62.165 16.66 62.8208 16.1463 63.6541 15.7769C64.4875 15.4076 65.4344 15.223 66.495 15.223C67.5746 15.223 68.5168 15.4076 69.3217 15.7769C70.1314 16.1463 70.7611 16.66 71.2109 17.3181C71.6607 17.9763 71.8928 18.7386 71.907 19.6051H68.9595Z" fill="#008E90"/>
<path d="M1.05682 40.9854V32.2581H4.00568C4.69034 32.2581 5.25 32.3817 5.68466 32.6288C6.12216 32.8731 6.44602 33.2041 6.65625 33.6217C6.86648 34.0393 6.97159 34.5052 6.97159 35.0194C6.97159 35.5336 6.86648 36.001 6.65625 36.4214C6.44886 36.8419 6.12784 37.1771 5.69318 37.4271C5.25852 37.6743 4.7017 37.7979 4.02273 37.7979H1.90909V36.8604H3.98864C4.45739 36.8604 4.83381 36.7794 5.1179 36.6175C5.40199 36.4555 5.60795 36.2368 5.7358 35.9612C5.86648 35.6828 5.93182 35.3689 5.93182 35.0194C5.93182 34.67 5.86648 34.3575 5.7358 34.0819C5.60795 33.8064 5.40057 33.5905 5.11364 33.4342C4.8267 33.2751 4.44602 33.1956 3.97159 33.1956H2.11364V40.9854H1.05682ZM11.314 40.9854V32.2581H14.2629C14.9447 32.2581 15.5043 32.3746 15.9418 32.6075C16.3793 32.8376 16.7032 33.1544 16.9134 33.5578C17.1237 33.9612 17.2288 34.42 17.2288 34.9342C17.2288 35.4484 17.1237 35.9044 16.9134 36.3021C16.7032 36.6998 16.3808 37.0123 15.9461 37.2396C15.5114 37.464 14.9561 37.5763 14.2799 37.5763H11.8936V36.6217H14.2458C14.7117 36.6217 15.0867 36.5535 15.3708 36.4172C15.6578 36.2808 15.8651 36.0876 15.993 35.8376C16.1237 35.5848 16.189 35.2836 16.189 34.9342C16.189 34.5848 16.1237 34.2794 15.993 34.018C15.8623 33.7567 15.6535 33.555 15.3666 33.4129C15.0796 33.268 14.7004 33.1956 14.2288 33.1956H12.3708V40.9854H11.314ZM15.422 37.0649L17.5697 40.9854H16.3424L14.2288 37.0649H15.422ZM22.6866 32.2581V40.9854H21.6298V32.2581H22.6866ZM27.4456 32.2581H28.7069L31.6728 39.5024H31.7751L34.741 32.2581H36.0024V40.9854H35.0138V34.3547H34.9285L32.2013 40.9854H31.2467L28.5194 34.3547H28.4342V40.9854H27.4456V32.2581ZM40.7614 40.9854V32.2581H46.0284V33.1956H41.8182V36.1444H45.7557V37.0819H41.8182V40.0479H46.0966V40.9854H40.7614ZM53.2664 40.9854H50.5732V32.2581H53.3857C54.2323 32.2581 54.9567 32.4328 55.559 32.7822C56.1613 33.1288 56.6229 33.6274 56.944 34.278C57.265 34.9257 57.4255 35.7013 57.4255 36.6047C57.4255 37.5138 57.2636 38.2964 56.9397 38.9527C56.6158 39.6061 56.1442 40.1089 55.5249 40.4612C54.9056 40.8106 54.1528 40.9854 53.2664 40.9854ZM51.63 40.0479H53.1982C53.9198 40.0479 54.5178 39.9086 54.9923 39.6302C55.4667 39.3518 55.8204 38.9555 56.0533 38.4413C56.2863 37.9271 56.4028 37.3149 56.4028 36.6047C56.4028 35.9001 56.2877 35.2936 56.0576 34.7851C55.8275 34.2737 55.4837 33.8817 55.0264 33.6089C54.569 33.3334 53.9994 33.1956 53.3175 33.1956H51.63V40.0479Z" fill="#131313"/>
<path fill-rule="evenodd" clip-rule="evenodd" d="M98.1636 11.5951V34.7119H69.9561V30.9825H63.9561V34.7119V40.7119H69.9561H98.1636H104.164V34.7119V10.6763V4.67627H104.118L98.1636 11.5951ZM100.706 4.67627H98.1636H69.9561H63.9561V10.6763V14.1467H69.9561V10.6763H94.3001L100.706 4.67627Z" fill="#131313"/>
</svg>
