<svg width="224" height="555" viewBox="0 0 224 555" fill="none" xmlns="http://www.w3.org/2000/svg">
<g filter="url(#filter0_ii_130_1424)">
<rect x="4" width="216" height="327" rx="20" fill="#FCCB04"/>
</g>
<g clip-path="url(#clip0_130_1424)">
<path d="M111.999 126C70.5782 126 37 142.791 37 163.5C37 184.209 70.5782 201 111.999 201C153.419 201 187 184.209 187 163.5C187 142.791 153.416 126 111.999 126ZM111.999 195.081C73.8485 195.081 42.9214 180.942 42.9214 163.5C42.9214 146.058 73.8485 131.921 111.999 131.921C150.149 131.921 181.079 146.058 181.079 163.5C181.079 180.942 150.152 195.081 111.999 195.081ZM102.542 156.922V151.001H123.709V156.922H116.089V176.007H110.16V156.922H102.542ZM149.241 151.001V176.007H143.32L132.581 161.124V176.007H126.662V151.001H132.581L143.32 165.884V151.001H149.241ZM74.584 176.007V151.001H80.5054L87.0829 161.119L93.6604 151.001H99.5818V176.007H93.6604V161.86L89.1625 168.763H84.9953L80.4974 161.86V176.007H74.584Z" fill="#1D1D1B"/>
</g>
<g filter="url(#filter1_iif_130_1424)">
<rect x="4" y="337" width="216" height="290" rx="20" fill="url(#paint0_linear_130_1424)"/>
</g>
<defs>
<filter id="filter0_ii_130_1424" x="-4" y="-8" width="232" height="343" filterUnits="userSpaceOnUse" color-interpolation-filters="sRGB">
<feFlood flood-opacity="0" result="BackgroundImageFix"/>
<feBlend mode="normal" in="SourceGraphic" in2="BackgroundImageFix" result="shape"/>
<feColorMatrix in="SourceAlpha" type="matrix" values="0 0 0 0 0 0 0 0 0 0 0 0 0 0 0 0 0 0 127 0" result="hardAlpha"/>
<feMorphology radius="2" operator="erode" in="SourceAlpha" result="effect1_innerShadow_130_1424"/>
<feOffset dx="10" dy="-10"/>
<feGaussianBlur stdDeviation="3"/>
<feComposite in2="hardAlpha" operator="arithmetic" k2="-1" k3="1"/>
<feColorMatrix type="matrix" values="0 0 0 0 0.0198497 0 0 0 0 0.0198497 0 0 0 0 0.0198497 0 0 0 0.3 0"/>
<feBlend mode="normal" in2="shape" result="effect1_innerShadow_130_1424"/>
<feColorMatrix in="SourceAlpha" type="matrix" values="0 0 0 0 0 0 0 0 0 0 0 0 0 0 0 0 0 0 127 0" result="hardAlpha"/>
<feMorphology radius="2" operator="erode" in="SourceAlpha" result="effect2_innerShadow_130_1424"/>
<feOffset dx="-10" dy="10"/>
<feGaussianBlur stdDeviation="3"/>
<feComposite in2="hardAlpha" operator="arithmetic" k2="-1" k3="1"/>
<feColorMatrix type="matrix" values="0 0 0 0 1 0 0 0 0 1 0 0 0 0 1 0 0 0 0.3 0"/>
<feBlend mode="normal" in2="effect1_innerShadow_130_1424" result="effect2_innerShadow_130_1424"/>
</filter>
<filter id="filter1_iif_130_1424" x="-4" y="329" width="232" height="306" filterUnits="userSpaceOnUse" color-interpolation-filters="sRGB">
<feFlood flood-opacity="0" result="BackgroundImageFix"/>
<feBlend mode="normal" in="SourceGraphic" in2="BackgroundImageFix" result="shape"/>
<feColorMatrix in="SourceAlpha" type="matrix" values="0 0 0 0 0 0 0 0 0 0 0 0 0 0 0 0 0 0 127 0" result="hardAlpha"/>
<feMorphology radius="2" operator="erode" in="SourceAlpha" result="effect1_innerShadow_130_1424"/>
<feOffset dx="10" dy="10"/>
<feGaussianBlur stdDeviation="3"/>
<feComposite in2="hardAlpha" operator="arithmetic" k2="-1" k3="1"/>
<feColorMatrix type="matrix" values="0 0 0 0 0.0198497 0 0 0 0 0.0198497 0 0 0 0 0.0198497 0 0 0 0.3 0"/>
<feBlend mode="normal" in2="shape" result="effect1_innerShadow_130_1424"/>
<feColorMatrix in="SourceAlpha" type="matrix" values="0 0 0 0 0 0 0 0 0 0 0 0 0 0 0 0 0 0 127 0" result="hardAlpha"/>
<feMorphology radius="2" operator="erode" in="SourceAlpha" result="effect2_innerShadow_130_1424"/>
<feOffset dx="-10" dy="-10"/>
<feGaussianBlur stdDeviation="3"/>
<feComposite in2="hardAlpha" operator="arithmetic" k2="-1" k3="1"/>
<feColorMatrix type="matrix" values="0 0 0 0 1 0 0 0 0 1 0 0 0 0 1 0 0 0 0.3 0"/>
<feBlend mode="normal" in2="effect1_innerShadow_130_1424" result="effect2_innerShadow_130_1424"/>
<feGaussianBlur stdDeviation="2" result="effect3_foregroundBlur_130_1424"/>
</filter>
<linearGradient id="paint0_linear_130_1424" x1="112" y1="337" x2="112" y2="627" gradientUnits="userSpaceOnUse">
<stop stop-color="#FCCB04"/>
<stop offset="0.0480398" stop-color="white" stop-opacity="0"/>
</linearGradient>
<clipPath id="clip0_130_1424">
<rect width="150" height="75" fill="white" transform="translate(37 126)"/>
</clipPath>
</defs>
</svg>
