<svg width="24" height="30" viewBox="0 0 24 30" fill="none" xmlns="http://www.w3.org/2000/svg">
<g clip-path="url(#clip0_1_383)">
<path d="M23.2482 10.3136C21.2819 11.5286 20.0675 13.6116 20.0675 15.9259C20.0675 18.5296 21.6289 20.9018 24 21.8854C23.5373 23.3898 22.8434 24.7784 21.9759 26.0513C20.7036 27.8449 19.3735 29.6964 17.4072 29.6964C15.441 29.6964 14.8627 28.5392 12.5494 28.5392C10.294 28.5392 9.48434 29.7543 7.63373 29.7543C5.78313 29.7543 4.51084 28.0764 3.06506 25.9934C1.15663 23.1005 0.0578313 19.7446 0 16.2152C0 10.4872 3.7012 7.42064 7.40241 7.42064C9.36867 7.42064 10.988 8.69354 12.2024 8.69354C13.359 8.69354 15.2096 7.36278 17.4072 7.36278C19.7205 7.30492 21.9181 8.40424 23.2482 10.3136ZM16.3663 4.93269C17.3494 3.77551 17.8699 2.32903 17.9277 0.824686C17.9277 0.651108 17.9277 0.419671 17.8699 0.246094C16.1928 0.419671 14.6313 1.2297 13.5325 2.5026C12.5494 3.60193 11.9711 4.99055 11.9133 6.49489C11.9133 6.66847 11.9133 6.84204 11.9711 7.01562C12.0867 7.01562 12.2602 7.07348 12.3759 7.07348C13.9373 6.95776 15.3831 6.14773 16.3663 4.93269Z" fill="white"/>
</g>
<defs>
<clipPath id="clip0_1_383">
<rect width="24" height="29.5082" fill="white" transform="translate(0 0.246094)"/>
</clipPath>
</defs>
</svg>
