<svg width="153" height="56" viewBox="0 0 153 56" fill="none" xmlns="http://www.w3.org/2000/svg">
<rect x="0.5" y="0.5" width="152" height="55" rx="9.5" fill="#0E0E0E"/>
<rect x="0.5" y="0.5" width="152" height="55" rx="9.5" stroke="white"/>
<g clip-path="url(#clip0_1_381)">
<path d="M39.2482 23.3136C37.2819 24.5286 36.0675 26.6116 36.0675 28.9259C36.0675 31.5296 37.6289 33.9018 40 34.8854C39.5373 36.3898 38.8434 37.7784 37.9759 39.0513C36.7036 40.8449 35.3735 42.6964 33.4072 42.6964C31.441 42.6964 30.8627 41.5392 28.5494 41.5392C26.294 41.5392 25.4843 42.7543 23.6337 42.7543C21.7831 42.7543 20.5108 41.0764 19.0651 38.9934C17.1566 36.1005 16.0578 32.7446 16 29.2152C16 23.4872 19.7012 20.4206 23.4024 20.4206C25.3687 20.4206 26.988 21.6935 28.2024 21.6935C29.359 21.6935 31.2096 20.3628 33.4072 20.3628C35.7205 20.3049 37.9181 21.4042 39.2482 23.3136ZM32.3663 17.9327C33.3494 16.7755 33.8699 15.329 33.9277 13.8247C33.9277 13.6511 33.9277 13.4197 33.8699 13.2461C32.1928 13.4197 30.6313 14.2297 29.5325 15.5026C28.5494 16.6019 27.9711 17.9905 27.9133 19.4949C27.9133 19.6685 27.9133 19.842 27.9711 20.0156C28.0867 20.0156 28.2602 20.0735 28.3759 20.0735C29.9373 19.9578 31.3831 19.1477 32.3663 17.9327Z" fill="white"/>
</g>
<path d="M53.0966 20H50.9659V12.7273H53.2244C53.9181 12.7273 54.5111 12.8717 55.0036 13.1605C55.4983 13.4493 55.8771 13.8636 56.1399 14.4034C56.4027 14.9432 56.5341 15.5907 56.5341 16.3459C56.5341 17.1082 56.3991 17.7628 56.1293 18.3097C55.8617 18.8542 55.4711 19.272 54.9574 19.5632C54.446 19.8544 53.8258 20 53.0966 20ZM51.63 19.4034H53.0575C53.6825 19.4034 54.2057 19.2803 54.6271 19.0341C55.0485 18.7879 55.3646 18.4363 55.5753 17.9794C55.786 17.5225 55.8913 16.978 55.8913 16.3459C55.889 15.7185 55.7848 15.1787 55.5788 14.7266C55.3752 14.2744 55.0722 13.9276 54.6697 13.6861C54.2696 13.4446 53.7749 13.3239 53.1854 13.3239H51.63V19.4034ZM60.1323 20.1136C59.6612 20.1136 59.2445 19.9941 58.8823 19.755C58.5224 19.5159 58.2407 19.1856 58.0371 18.7642C57.8335 18.3404 57.7317 17.8516 57.7317 17.2976C57.7317 16.7389 57.8335 16.2476 58.0371 15.8239C58.2407 15.3977 58.5224 15.0663 58.8823 14.8295C59.2445 14.5904 59.6612 14.4709 60.1323 14.4709C60.6034 14.4709 61.0189 14.5904 61.3787 14.8295C61.7386 15.0687 62.0203 15.4001 62.2239 15.8239C62.4299 16.2476 62.5328 16.7389 62.5328 17.2976C62.5328 17.8516 62.431 18.3404 62.2275 18.7642C62.0239 19.1856 61.7409 19.5159 61.3787 19.755C61.0189 19.9941 60.6034 20.1136 60.1323 20.1136ZM60.1323 19.5348C60.5111 19.5348 60.8319 19.433 61.0946 19.2294C61.3574 19.0258 61.5563 18.7547 61.6912 18.4162C61.8285 18.0777 61.8972 17.7048 61.8972 17.2976C61.8972 16.8904 61.8285 16.5163 61.6912 16.1754C61.5563 15.8345 61.3574 15.5611 61.0946 15.3551C60.8319 15.1491 60.5111 15.0462 60.1323 15.0462C59.7559 15.0462 59.4351 15.1491 59.1699 15.3551C58.9071 15.5611 58.7071 15.8345 58.5698 16.1754C58.4348 16.5163 58.3674 16.8904 58.3674 17.2976C58.3674 17.7048 58.4348 18.0777 58.5698 18.4162C58.7071 18.7547 58.9071 19.0258 59.1699 19.2294C59.4327 19.433 59.7535 19.5348 60.1323 19.5348ZM64.9458 20L63.2981 14.5455H63.9657L65.2583 19.0447H65.3045L66.5936 14.5455H67.2647L68.5431 19.0341H68.5929L69.8855 14.5455H70.5531L68.9054 20H68.252L66.9593 15.5291H66.8919L65.5993 20H64.9458ZM72.4139 16.5909V20H71.7818V14.5455H72.3961V15.4013H72.4529C72.5808 15.1219 72.7797 14.8982 73.0495 14.7301C73.3218 14.5597 73.658 14.4744 74.0581 14.4744C74.425 14.4744 74.747 14.5514 75.024 14.7053C75.3033 14.8568 75.5199 15.0805 75.6738 15.3764C75.8301 15.6723 75.9082 16.0357 75.9082 16.4666V20H75.2761V16.5057C75.2761 16.0582 75.1506 15.7043 74.8997 15.4439C74.6511 15.1835 74.3173 15.0533 73.8983 15.0533C73.6118 15.0533 73.3573 15.1148 73.1348 15.2379C72.9122 15.361 72.7359 15.5386 72.6056 15.7706C72.4778 16.0002 72.4139 16.2737 72.4139 16.5909ZM78.2049 12.7273V20H77.5728V12.7273H78.2049ZM81.9975 20.1136C81.5264 20.1136 81.1097 19.9941 80.7475 19.755C80.3877 19.5159 80.1059 19.1856 79.9023 18.7642C79.6987 18.3404 79.5969 17.8516 79.5969 17.2976C79.5969 16.7389 79.6987 16.2476 79.9023 15.8239C80.1059 15.3977 80.3877 15.0663 80.7475 14.8295C81.1097 14.5904 81.5264 14.4709 81.9975 14.4709C82.4686 14.4709 82.8841 14.5904 83.244 14.8295C83.6038 15.0687 83.8855 15.4001 84.0891 15.8239C84.2951 16.2476 84.3981 16.7389 84.3981 17.2976C84.3981 17.8516 84.2963 18.3404 84.0927 18.7642C83.8891 19.1856 83.6062 19.5159 83.244 19.755C82.8841 19.9941 82.4686 20.1136 81.9975 20.1136ZM81.9975 19.5348C82.3763 19.5348 82.6971 19.433 82.9599 19.2294C83.2227 19.0258 83.4215 18.7547 83.5565 18.4162C83.6938 18.0777 83.7624 17.7048 83.7624 17.2976C83.7624 16.8904 83.6938 16.5163 83.5565 16.1754C83.4215 15.8345 83.2227 15.5611 82.9599 15.3551C82.6971 15.1491 82.3763 15.0462 81.9975 15.0462C81.6211 15.0462 81.3003 15.1491 81.0352 15.3551C80.7724 15.5611 80.5723 15.8345 80.435 16.1754C80.3001 16.5163 80.2326 16.8904 80.2326 17.2976C80.2326 17.7048 80.3001 18.0777 80.435 18.4162C80.5723 18.7547 80.7724 19.0258 81.0352 19.2294C81.2979 19.433 81.6187 19.5348 81.9975 19.5348ZM87.3091 20.1243C86.9801 20.1243 86.6794 20.0604 86.4071 19.9325C86.1349 19.8023 85.9183 19.6153 85.7573 19.3714C85.5963 19.1252 85.5158 18.8269 85.5158 18.4766C85.5158 18.2067 85.5667 17.9794 85.6685 17.7947C85.7703 17.6101 85.9147 17.4586 86.1017 17.3402C86.2888 17.2218 86.5101 17.1283 86.7658 17.0597C87.0215 16.991 87.3032 16.9377 87.611 16.8999C87.9164 16.862 88.1744 16.8288 88.3851 16.8004C88.5982 16.772 88.7604 16.727 88.8716 16.6655C88.9829 16.6039 89.0385 16.5045 89.0385 16.3672V16.2393C89.0385 15.8677 88.9273 15.5753 88.7047 15.3622C88.4846 15.1468 88.1673 15.0391 87.753 15.0391C87.36 15.0391 87.0392 15.1255 86.7907 15.2983C86.5444 15.4711 86.3716 15.6747 86.2722 15.9091L85.6721 15.6925C85.7952 15.3942 85.9656 15.1562 86.1834 14.9787C86.4012 14.7988 86.6451 14.6697 86.915 14.5916C87.1848 14.5111 87.4583 14.4709 87.7353 14.4709C87.9436 14.4709 88.1602 14.4981 88.3851 14.5526C88.6124 14.607 88.8231 14.7017 89.0172 14.8366C89.2114 14.9692 89.3688 15.1551 89.4895 15.3942C89.6103 15.6309 89.6706 15.9316 89.6706 16.2962V20H89.0385V19.1371H88.9995C88.9237 19.2981 88.8113 19.4543 88.6621 19.6058C88.513 19.7573 88.3259 19.8816 88.101 19.9787C87.8761 20.0758 87.6122 20.1243 87.3091 20.1243ZM87.3944 19.5455C87.7305 19.5455 88.0217 19.4709 88.2679 19.3217C88.5141 19.1726 88.7035 18.9749 88.8361 18.7287C88.9711 18.4801 89.0385 18.2067 89.0385 17.9084V17.12C88.9912 17.165 88.9119 17.2053 88.8006 17.2408C88.6917 17.2763 88.565 17.3082 88.4206 17.3366C88.2786 17.3627 88.1365 17.3852 87.9945 17.4041C87.8525 17.4231 87.7246 17.4396 87.611 17.4538C87.3032 17.4917 87.0404 17.5509 86.8226 17.6314C86.6048 17.7119 86.4379 17.8232 86.3219 17.9652C86.2059 18.1049 86.1479 18.2848 86.1479 18.505C86.1479 18.8364 86.2663 19.0933 86.503 19.2756C86.7398 19.4555 87.0369 19.5455 87.3944 19.5455ZM93.3159 20.1136C92.8684 20.1136 92.4766 19.9953 92.1404 19.7585C91.8043 19.5218 91.5415 19.1915 91.3521 18.7678C91.1651 18.344 91.0716 17.8504 91.0716 17.2869C91.0716 16.7259 91.1651 16.2346 91.3521 15.8132C91.5415 15.3894 91.8055 15.0604 92.144 14.826C92.4825 14.5893 92.8767 14.4709 93.3265 14.4709C93.658 14.4709 93.9338 14.5301 94.1539 14.6484C94.3741 14.7644 94.5505 14.9089 94.6831 15.0817C94.8156 15.2545 94.9186 15.4226 94.992 15.5859H95.0488V12.7273H95.6845V20H95.0666V18.9879H94.992C94.9186 19.1536 94.8145 19.3241 94.6795 19.4993C94.5446 19.6721 94.3658 19.8177 94.1433 19.9361C93.9231 20.0545 93.6473 20.1136 93.3159 20.1136ZM93.3904 19.5348C93.7432 19.5348 94.0439 19.4389 94.2924 19.2472C94.541 19.053 94.7304 18.7867 94.8606 18.4482C94.9932 18.1072 95.0595 17.7166 95.0595 17.2763C95.0595 16.8407 94.9944 16.456 94.8642 16.1222C94.734 15.786 94.5446 15.5232 94.296 15.3338C94.0474 15.142 93.7456 15.0462 93.3904 15.0462C93.0259 15.0462 92.7181 15.1456 92.4672 15.3445C92.2186 15.541 92.0292 15.8073 91.899 16.1435C91.7711 16.4796 91.7072 16.8572 91.7072 17.2763C91.7072 17.7 91.7723 18.0824 91.9025 18.4233C92.0327 18.7642 92.2221 19.0353 92.4707 19.2365C92.7217 19.4354 93.0282 19.5348 93.3904 19.5348ZM102.417 20.1136C101.946 20.1136 101.53 19.9941 101.167 19.755C100.808 19.5159 100.526 19.1856 100.322 18.7642C100.119 18.3404 100.017 17.8516 100.017 17.2976C100.017 16.7389 100.119 16.2476 100.322 15.8239C100.526 15.3977 100.808 15.0663 101.167 14.8295C101.53 14.5904 101.946 14.4709 102.417 14.4709C102.889 14.4709 103.304 14.5904 103.664 14.8295C104.024 15.0687 104.305 15.4001 104.509 15.8239C104.715 16.2476 104.818 16.7389 104.818 17.2976C104.818 17.8516 104.716 18.3404 104.513 18.7642C104.309 19.1856 104.026 19.5159 103.664 19.755C103.304 19.9941 102.889 20.1136 102.417 20.1136ZM102.417 19.5348C102.796 19.5348 103.117 19.433 103.38 19.2294C103.643 19.0258 103.841 18.7547 103.976 18.4162C104.114 18.0777 104.182 17.7048 104.182 17.2976C104.182 16.8904 104.114 16.5163 103.976 16.1754C103.841 15.8345 103.643 15.5611 103.38 15.3551C103.117 15.1491 102.796 15.0462 102.417 15.0462C102.041 15.0462 101.72 15.1491 101.455 15.3551C101.192 15.5611 100.992 15.8345 100.855 16.1754C100.72 16.5163 100.653 16.8904 100.653 17.2976C100.653 17.7048 100.72 18.0777 100.855 18.4162C100.992 18.7547 101.192 19.0258 101.455 19.2294C101.718 19.433 102.039 19.5348 102.417 19.5348ZM106.838 16.5909V20H106.206V14.5455H106.82V15.4013H106.877C107.005 15.1219 107.203 14.8982 107.473 14.7301C107.746 14.5597 108.082 14.4744 108.482 14.4744C108.849 14.4744 109.171 14.5514 109.448 14.7053C109.727 14.8568 109.944 15.0805 110.098 15.3764C110.254 15.6723 110.332 16.0357 110.332 16.4666V20H109.7V16.5057C109.7 16.0582 109.574 15.7043 109.324 15.4439C109.075 15.1835 108.741 15.0533 108.322 15.0533C108.036 15.0533 107.781 15.1148 107.559 15.2379C107.336 15.361 107.16 15.5386 107.029 15.7706C106.902 16.0002 106.838 16.2737 106.838 16.5909ZM116.958 14.5455V15.0959H114.355V14.5455H116.958ZM115.168 13.2386H115.803V18.576C115.803 18.8033 115.843 18.982 115.921 19.1122C115.999 19.2401 116.101 19.3312 116.226 19.3857C116.352 19.4377 116.485 19.4638 116.627 19.4638C116.71 19.4638 116.781 19.459 116.84 19.4496C116.9 19.4377 116.952 19.4259 116.997 19.4141L117.132 19.9858C117.07 20.0095 116.994 20.0308 116.904 20.0497C116.814 20.071 116.703 20.0817 116.57 20.0817C116.338 20.0817 116.115 20.0308 115.899 19.929C115.686 19.8272 115.511 19.6757 115.374 19.4744C115.236 19.2732 115.168 19.0234 115.168 18.7251V13.2386ZM119.142 16.5909V20H118.51V12.7273H119.142V15.4013H119.199C119.327 15.1196 119.525 14.8946 119.792 14.7266C120.062 14.5585 120.403 14.4744 120.815 14.4744C121.184 14.4744 121.509 14.5502 121.788 14.7017C122.067 14.8532 122.285 15.0769 122.441 15.3729C122.598 15.6688 122.676 16.0334 122.676 16.4666V20H122.04V16.5057C122.04 16.0559 121.915 15.7019 121.664 15.4439C121.415 15.1835 121.079 15.0533 120.655 15.0533C120.364 15.0533 120.105 15.1148 119.877 15.2379C119.65 15.361 119.47 15.5386 119.338 15.7706C119.208 16.0002 119.142 16.2737 119.142 16.5909ZM126.546 20.1136C126.037 20.1136 125.596 19.9953 125.225 19.7585C124.853 19.5194 124.565 19.1892 124.362 18.7678C124.16 18.344 124.06 17.8563 124.06 17.3047C124.06 16.7554 124.16 16.2678 124.362 15.8416C124.565 15.4131 124.846 15.0781 125.203 14.8366C125.563 14.5928 125.979 14.4709 126.45 14.4709C126.746 14.4709 127.031 14.5253 127.306 14.6342C127.58 14.7408 127.826 14.9053 128.044 15.1278C128.264 15.348 128.438 15.6262 128.566 15.9624C128.694 16.2962 128.758 16.6915 128.758 17.1484V17.4609H124.497V16.9034H128.112C128.112 16.553 128.041 16.2382 127.899 15.9588C127.759 15.6771 127.564 15.4545 127.313 15.2912C127.064 15.1278 126.776 15.0462 126.45 15.0462C126.104 15.0462 125.8 15.1385 125.537 15.3232C125.274 15.5078 125.068 15.7517 124.919 16.0547C124.772 16.3577 124.698 16.6892 124.695 17.049V17.3828C124.695 17.8161 124.77 18.1948 124.919 18.5192C125.071 18.8411 125.285 19.0909 125.562 19.2685C125.839 19.446 126.167 19.5348 126.546 19.5348C126.804 19.5348 127.03 19.4946 127.224 19.4141C127.42 19.3336 127.585 19.2259 127.718 19.0909C127.852 18.9536 127.954 18.8033 128.023 18.6399L128.623 18.8352C128.54 19.0649 128.404 19.2768 128.215 19.4709C128.028 19.665 127.793 19.8213 127.512 19.9396C127.232 20.0556 126.91 20.1136 126.546 20.1136Z" fill="white"/>
<path d="M52.9723 42H50.4411L55.0497 28.9091H57.9773L62.5923 42H60.0611L56.5646 31.5938H56.4624L52.9723 42ZM53.0554 36.8672H59.9588V38.772H53.0554V36.8672ZM64.2143 45.6818V32.1818H66.4899V33.8054H66.6241C66.7434 33.5668 66.9118 33.3132 67.1291 33.0447C67.3464 32.772 67.6404 32.5398 68.0112 32.348C68.3819 32.152 68.8549 32.054 69.4302 32.054C70.1887 32.054 70.8727 32.2479 71.4821 32.6357C72.0957 33.0192 72.5815 33.5881 72.9395 34.3423C73.3017 35.0923 73.4828 36.0128 73.4828 37.1037C73.4828 38.1818 73.3059 39.098 72.9522 39.8523C72.5985 40.6065 72.117 41.1818 71.5076 41.5781C70.8983 41.9744 70.2079 42.1726 69.4366 42.1726C68.8741 42.1726 68.4075 42.0788 68.0368 41.8913C67.666 41.7038 67.3677 41.478 67.1419 41.2138C66.9203 40.9453 66.7477 40.6918 66.6241 40.4531H66.5282V45.6818H64.2143ZM66.4835 37.0909C66.4835 37.7259 66.573 38.282 66.752 38.7592C66.9352 39.2365 67.1973 39.6094 67.5382 39.8778C67.8833 40.142 68.301 40.2741 68.791 40.2741C69.3024 40.2741 69.7306 40.1378 70.0758 39.8651C70.421 39.5881 70.6809 39.2109 70.8556 38.7337C71.0346 38.2521 71.1241 37.7045 71.1241 37.0909C71.1241 36.4815 71.0368 35.9403 70.862 35.4673C70.6873 34.9943 70.4274 34.6236 70.0822 34.3551C69.737 34.0866 69.3066 33.9524 68.791 33.9524C68.2967 33.9524 67.877 34.0824 67.5318 34.3423C67.1866 34.6023 66.9245 34.9666 66.7456 35.4354C66.5708 35.9041 66.4835 36.456 66.4835 37.0909ZM75.4643 45.6818V32.1818H77.7399V33.8054H77.8741C77.9934 33.5668 78.1618 33.3132 78.3791 33.0447C78.5964 32.772 78.8904 32.5398 79.2612 32.348C79.6319 32.152 80.1049 32.054 80.6802 32.054C81.4387 32.054 82.1227 32.2479 82.7321 32.6357C83.3457 33.0192 83.8315 33.5881 84.1895 34.3423C84.5517 35.0923 84.7328 36.0128 84.7328 37.1037C84.7328 38.1818 84.5559 39.098 84.2022 39.8523C83.8485 40.6065 83.367 41.1818 82.7576 41.5781C82.1483 41.9744 81.4579 42.1726 80.6866 42.1726C80.1241 42.1726 79.6575 42.0788 79.2868 41.8913C78.916 41.7038 78.6177 41.478 78.3919 41.2138C78.1703 40.9453 77.9977 40.6918 77.8741 40.4531H77.7782V45.6818H75.4643ZM77.7335 37.0909C77.7335 37.7259 77.823 38.282 78.002 38.7592C78.1852 39.2365 78.4473 39.6094 78.7882 39.8778C79.1333 40.142 79.551 40.2741 80.041 40.2741C80.5524 40.2741 80.9806 40.1378 81.3258 39.8651C81.671 39.5881 81.9309 39.2109 82.1056 38.7337C82.2846 38.2521 82.3741 37.7045 82.3741 37.0909C82.3741 36.4815 82.2868 35.9403 82.112 35.4673C81.9373 34.9943 81.6774 34.6236 81.3322 34.3551C80.987 34.0866 80.5566 33.9524 80.041 33.9524C79.5467 33.9524 79.127 34.0824 78.7818 34.3423C78.4366 34.6023 78.1745 34.9666 77.9956 35.4354C77.8208 35.9041 77.7335 36.456 77.7335 37.0909ZM98.3958 32.5078C98.3361 31.9496 98.0847 31.5149 97.6415 31.2038C97.2026 30.8928 96.6316 30.7372 95.9284 30.7372C95.4341 30.7372 95.0101 30.8118 94.6564 30.9609C94.3027 31.1101 94.0321 31.3125 93.8446 31.5682C93.6571 31.8239 93.5613 32.1158 93.557 32.4439C93.557 32.7166 93.6188 32.9531 93.7424 33.1534C93.8702 33.3537 94.0428 33.5241 94.2601 33.6648C94.4775 33.8011 94.7182 33.9162 94.9824 34.0099C95.2466 34.1037 95.513 34.1825 95.7814 34.2464L97.0087 34.5533C97.503 34.6683 97.9782 34.8239 98.4341 35.0199C98.8944 35.2159 99.3056 35.4631 99.6678 35.7614C100.034 36.0597 100.324 36.4197 100.537 36.8416C100.75 37.2635 100.857 37.7578 100.857 38.3246C100.857 39.0916 100.661 39.767 100.269 40.3509C99.8766 40.9304 99.3098 41.3842 98.5684 41.7124C97.8311 42.0362 96.9384 42.1982 95.8901 42.1982C94.8716 42.1982 93.9874 42.0405 93.2374 41.7251C92.4917 41.4098 91.9078 40.9496 91.486 40.3445C91.0684 39.7393 90.8425 39.0021 90.8084 38.1328H93.1415C93.1756 38.5888 93.3162 38.968 93.5634 39.2706C93.8105 39.5732 94.1323 39.799 94.5286 39.9482C94.9292 40.0973 95.3766 40.1719 95.8709 40.1719C96.3865 40.1719 96.8382 40.0952 97.226 39.9418C97.6181 39.7841 97.9249 39.5668 98.1465 39.2898C98.3681 39.0085 98.481 38.6804 98.4853 38.3054C98.481 37.9645 98.3809 37.6832 98.1848 37.4616C97.9888 37.2358 97.714 37.0483 97.3603 36.8991C97.0108 36.7457 96.6017 36.6094 96.133 36.4901L94.6436 36.1065C93.5655 35.8295 92.7132 35.4098 92.0868 34.8473C91.4647 34.2805 91.1536 33.5284 91.1536 32.5909C91.1536 31.8196 91.3624 31.1442 91.78 30.5646C92.2019 29.9851 92.775 29.5355 93.4995 29.2159C94.2239 28.892 95.0442 28.7301 95.9604 28.7301C96.8894 28.7301 97.7033 28.892 98.4022 29.2159C99.1053 29.5355 99.6571 29.9808 100.058 30.5518C100.458 31.1186 100.665 31.7706 100.678 32.5078H98.3958ZM107.771 32.1818V33.9716H102.127V32.1818H107.771ZM103.521 29.8295H105.835V39.0469C105.835 39.358 105.881 39.5966 105.975 39.7628C106.073 39.9247 106.201 40.0355 106.359 40.0952C106.516 40.1548 106.691 40.1847 106.883 40.1847C107.028 40.1847 107.16 40.174 107.279 40.1527C107.403 40.1314 107.496 40.1122 107.56 40.0952L107.95 41.9041C107.827 41.9467 107.65 41.9936 107.42 42.0447C107.194 42.0959 106.917 42.1257 106.589 42.1342C106.009 42.1513 105.487 42.0639 105.023 41.8722C104.558 41.6761 104.19 41.3736 103.917 40.9645C103.648 40.5554 103.516 40.044 103.521 39.4304V29.8295ZM113.884 42.1918C112.925 42.1918 112.094 41.9808 111.391 41.5589C110.688 41.1371 110.142 40.5469 109.754 39.7884C109.371 39.0298 109.179 38.1435 109.179 37.1293C109.179 36.1151 109.371 35.2266 109.754 34.4638C110.142 33.701 110.688 33.1087 111.391 32.6868C112.094 32.2649 112.925 32.054 113.884 32.054C114.843 32.054 115.673 32.2649 116.377 32.6868C117.08 33.1087 117.623 33.701 118.007 34.4638C118.394 35.2266 118.588 36.1151 118.588 37.1293C118.588 38.1435 118.394 39.0298 118.007 39.7884C117.623 40.5469 117.08 41.1371 116.377 41.5589C115.673 41.9808 114.843 42.1918 113.884 42.1918ZM113.896 40.3381C114.416 40.3381 114.851 40.1953 115.2 39.9098C115.55 39.62 115.81 39.2322 115.98 38.7464C116.155 38.2607 116.242 37.7195 116.242 37.1229C116.242 36.522 116.155 35.9787 115.98 35.4929C115.81 35.0028 115.55 34.6129 115.2 34.3232C114.851 34.0334 114.416 33.8885 113.896 33.8885C113.364 33.8885 112.921 34.0334 112.567 34.3232C112.218 34.6129 111.955 35.0028 111.781 35.4929C111.61 35.9787 111.525 36.522 111.525 37.1229C111.525 37.7195 111.61 38.2607 111.781 38.7464C111.955 39.2322 112.218 39.62 112.567 39.9098C112.921 40.1953 113.364 40.3381 113.896 40.3381ZM120.552 42V32.1818H122.796V33.8182H122.898C123.077 33.2514 123.384 32.8146 123.819 32.5078C124.257 32.1967 124.758 32.0412 125.321 32.0412C125.449 32.0412 125.591 32.0476 125.749 32.0604C125.911 32.0689 126.045 32.0838 126.152 32.1051V34.2337C126.054 34.1996 125.898 34.1697 125.685 34.1442C125.476 34.1143 125.274 34.0994 125.078 34.0994C124.656 34.0994 124.277 34.1911 123.94 34.3743C123.608 34.5533 123.346 34.8026 123.154 35.1222C122.962 35.4418 122.866 35.8104 122.866 36.228V42H120.552ZM131.631 42.1918C130.647 42.1918 129.797 41.9872 129.081 41.5781C128.369 41.1648 127.822 40.581 127.438 39.8267C127.055 39.0682 126.863 38.1754 126.863 37.1484C126.863 36.1385 127.055 35.2521 127.438 34.4893C127.826 33.7223 128.367 33.1257 129.062 32.6996C129.756 32.2692 130.572 32.054 131.51 32.054C132.115 32.054 132.686 32.152 133.223 32.348C133.764 32.5398 134.241 32.8381 134.655 33.2429C135.072 33.6477 135.4 34.1634 135.639 34.7898C135.878 35.4119 135.997 36.1534 135.997 37.0142V37.7237H127.949V36.1641H133.779C133.775 35.7209 133.679 35.3267 133.491 34.9815C133.304 34.6321 133.042 34.3572 132.705 34.157C132.373 33.9567 131.985 33.8565 131.542 33.8565C131.069 33.8565 130.653 33.9716 130.295 34.2017C129.937 34.4276 129.658 34.7259 129.458 35.0966C129.262 35.4631 129.162 35.8658 129.157 36.3047V37.6662C129.157 38.2372 129.262 38.7273 129.471 39.1364C129.68 39.5412 129.971 39.8523 130.346 40.0696C130.721 40.2827 131.16 40.3892 131.663 40.3892C132 40.3892 132.305 40.3423 132.577 40.2486C132.85 40.1506 133.086 40.0078 133.287 39.8203C133.487 39.6328 133.638 39.4006 133.741 39.1236L135.901 39.3665C135.765 39.9375 135.505 40.4361 135.121 40.8622C134.742 41.2841 134.256 41.6122 133.664 41.8466C133.072 42.0767 132.394 42.1918 131.631 42.1918Z" fill="white"/>
<defs>
<clipPath id="clip0_1_381">
<rect width="24" height="29.5082" fill="white" transform="translate(16 13.2461)"/>
</clipPath>
</defs>
</svg>
