<svg width="170" height="56" viewBox="0 0 170 56" fill="none" xmlns="http://www.w3.org/2000/svg">
<rect x="0.5" y="0.5" width="169" height="55" rx="9.5" fill="#0E0E0E"/>
<rect x="0.5" y="0.5" width="169" height="55" rx="9.5" stroke="white"/>
<path d="M16.4823 14.6638C16.1438 15.0699 15.9726 15.5896 16.0036 16.1174V39.0445C15.9744 39.5721 16.1454 40.0912 16.4823 40.4982L16.5606 40.5765L29.3995 27.7289V27.4243L16.5606 14.5854L16.4823 14.6638Z" fill="url(#paint0_linear_1_365)"/>
<path d="M33.6819 32.0114L29.3994 27.7289V27.4242L33.6819 23.1504L33.7777 23.2026L38.8523 26.0837C40.3059 26.9019 40.3059 28.2511 38.8523 29.078L33.7777 31.9591L33.6819 32.0114Z" fill="url(#paint1_linear_1_365)"/>
<path d="M33.7779 31.9591L29.4257 27.6069L16.4824 40.498C16.7808 40.7433 17.1522 40.8824 17.5383 40.8934C17.9243 40.9044 18.3031 40.7868 18.615 40.5589L33.7518 31.9591" fill="url(#paint2_linear_1_365)"/>
<path d="M33.7779 23.2028L18.615 14.5942C18.3065 14.357 17.9252 14.2343 17.5362 14.247C17.1473 14.2597 16.7748 14.407 16.4824 14.6638L29.3996 27.581L33.7779 23.2028Z" fill="url(#paint3_linear_1_365)"/>
<path opacity="0.1" d="M33.6819 31.8638L18.6147 40.4114C18.3142 40.6353 17.9494 40.7563 17.5746 40.7563C17.1997 40.7563 16.8349 40.6353 16.5344 40.4114L16.4561 40.4897L16.5344 40.5681C16.8349 40.792 17.1997 40.913 17.5746 40.913C17.9494 40.913 18.3142 40.792 18.6147 40.5681L33.7515 31.9682L33.6819 31.8638Z" fill="black"/>
<path opacity="0.07" d="M16.4825 40.3588C16.145 39.9488 15.9741 39.4267 16.0038 38.8965V39.0445C15.9746 39.572 16.1456 40.0911 16.4825 40.4981L16.5609 40.4197L16.4825 40.3588Z" fill="black"/>
<path opacity="0.07" d="M38.8525 28.9217L33.6821 31.8637L33.7779 31.9595L38.8525 29.0435C39.1501 28.9126 39.4077 28.7051 39.5989 28.442C39.79 28.179 39.9079 27.8699 39.9405 27.5464C39.8811 27.8454 39.7515 28.1261 39.5623 28.3652C39.3732 28.6043 39.1299 28.7951 38.8525 28.9217Z" fill="black"/>
<path opacity="0.3" d="M18.6147 14.7509L38.8522 26.2319C39.1269 26.3554 39.3686 26.5419 39.5576 26.7763C39.7467 27.0107 39.8777 27.2864 39.9402 27.581C39.9094 27.257 39.7922 26.9471 39.6008 26.6838C39.4095 26.4204 39.1509 26.2133 38.8522 26.0839L18.6147 14.5942C17.1872 13.776 16.0034 14.455 16.0034 16.1175V16.2654C16.0034 14.6116 17.1872 13.924 18.6147 14.7509Z" fill="white"/>
<path d="M50.9766 20H50.2805L52.9261 12.7273H53.6364L56.282 20H55.5859L53.3061 13.5902H53.2564L50.9766 20ZM51.4773 17.2124H55.0852V17.8089H51.4773V17.2124ZM60.9357 14.5455L58.9435 20H58.2688L56.2766 14.5455H56.962L58.5813 19.1655H58.631L60.2504 14.5455H60.9357ZM63.5298 20.1243C63.2008 20.1243 62.9001 20.0604 62.6278 19.9325C62.3556 19.8023 62.139 19.6153 61.978 19.3714C61.817 19.1252 61.7365 18.8269 61.7365 18.4766C61.7365 18.2067 61.7874 17.9794 61.8892 17.7947C61.991 17.6101 62.1354 17.4586 62.3224 17.3402C62.5095 17.2218 62.7308 17.1283 62.9865 17.0597C63.2422 16.991 63.5239 16.9377 63.8317 16.8999C64.1371 16.862 64.3951 16.8288 64.6058 16.8004C64.8189 16.772 64.9811 16.727 65.0923 16.6655C65.2036 16.6039 65.2592 16.5045 65.2592 16.3672V16.2393C65.2592 15.8677 65.148 15.5753 64.9254 15.3622C64.7053 15.1468 64.388 15.0391 63.9737 15.0391C63.5807 15.0391 63.2599 15.1255 63.0114 15.2983C62.7652 15.4711 62.5923 15.6747 62.4929 15.9091L61.8928 15.6925C62.0159 15.3942 62.1863 15.1562 62.4041 14.9787C62.6219 14.7988 62.8658 14.6697 63.1357 14.5916C63.4055 14.5111 63.679 14.4709 63.956 14.4709C64.1643 14.4709 64.3809 14.4981 64.6058 14.5526C64.8331 14.607 65.0438 14.7017 65.2379 14.8366C65.4321 14.9692 65.5895 15.1551 65.7102 15.3942C65.831 15.6309 65.8913 15.9316 65.8913 16.2962V20H65.2592V19.1371H65.2202C65.1444 19.2981 65.032 19.4543 64.8828 19.6058C64.7337 19.7573 64.5466 19.8816 64.3217 19.9787C64.0968 20.0758 63.8329 20.1243 63.5298 20.1243ZM63.6151 19.5455C63.9512 19.5455 64.2424 19.4709 64.4886 19.3217C64.7348 19.1726 64.9242 18.9749 65.0568 18.7287C65.1918 18.4801 65.2592 18.2067 65.2592 17.9084V17.12C65.2119 17.165 65.1326 17.2053 65.0213 17.2408C64.9124 17.2763 64.7857 17.3082 64.6413 17.3366C64.4993 17.3627 64.3572 17.3852 64.2152 17.4041C64.0732 17.4231 63.9453 17.4396 63.8317 17.4538C63.5239 17.4917 63.2611 17.5509 63.0433 17.6314C62.8255 17.7119 62.6586 17.8232 62.5426 17.9652C62.4266 18.1049 62.3686 18.2848 62.3686 18.505C62.3686 18.8364 62.487 19.0933 62.7237 19.2756C62.9605 19.4555 63.2576 19.5455 63.6151 19.5455ZM67.5799 20V14.5455H68.2156V20H67.5799ZM67.9031 13.608C67.7728 13.608 67.6616 13.5642 67.5692 13.4766C67.4769 13.3866 67.4308 13.2789 67.4308 13.1534C67.4308 13.0279 67.4769 12.9214 67.5692 12.8338C67.6616 12.7438 67.7728 12.6989 67.9031 12.6989C68.0333 12.6989 68.1445 12.7438 68.2369 12.8338C68.3292 12.9214 68.3754 13.0279 68.3754 13.1534C68.3754 13.2789 68.3292 13.3866 68.2369 13.4766C68.1445 13.5642 68.0333 13.608 67.9031 13.608ZM70.5194 12.7273V20H69.8873V12.7273H70.5194ZM73.7154 20.1243C73.3863 20.1243 73.0856 20.0604 72.8134 19.9325C72.5411 19.8023 72.3245 19.6153 72.1635 19.3714C72.0025 19.1252 71.9221 18.8269 71.9221 18.4766C71.9221 18.2067 71.973 17.9794 72.0748 17.7947C72.1766 17.6101 72.321 17.4586 72.508 17.3402C72.695 17.2218 72.9164 17.1283 73.1721 17.0597C73.4277 16.991 73.7095 16.9377 74.0172 16.8999C74.3226 16.862 74.5807 16.8288 74.7914 16.8004C75.0044 16.772 75.1666 16.727 75.2779 16.6655C75.3891 16.6039 75.4448 16.5045 75.4448 16.3672V16.2393C75.4448 15.8677 75.3335 15.5753 75.111 15.3622C74.8908 15.1468 74.5736 15.0391 74.1593 15.0391C73.7663 15.0391 73.4455 15.1255 73.1969 15.2983C72.9507 15.4711 72.7779 15.6747 72.6784 15.9091L72.0783 15.6925C72.2014 15.3942 72.3719 15.1562 72.5897 14.9787C72.8075 14.7988 73.0513 14.6697 73.3212 14.5916C73.5911 14.5111 73.8645 14.4709 74.1415 14.4709C74.3498 14.4709 74.5665 14.4981 74.7914 14.5526C75.0186 14.607 75.2293 14.7017 75.4235 14.8366C75.6176 14.9692 75.775 15.1551 75.8958 15.3942C76.0165 15.6309 76.0769 15.9316 76.0769 16.2962V20H75.4448V19.1371H75.4057C75.33 19.2981 75.2175 19.4543 75.0684 19.6058C74.9192 19.7573 74.7322 19.8816 74.5073 19.9787C74.2824 20.0758 74.0184 20.1243 73.7154 20.1243ZM73.8006 19.5455C74.1368 19.5455 74.428 19.4709 74.6742 19.3217C74.9204 19.1726 75.1098 18.9749 75.2424 18.7287C75.3773 18.4801 75.4448 18.2067 75.4448 17.9084V17.12C75.3974 17.165 75.3181 17.2053 75.2069 17.2408C75.098 17.2763 74.9713 17.3082 74.8269 17.3366C74.6848 17.3627 74.5428 17.3852 74.4007 17.4041C74.2587 17.4231 74.1309 17.4396 74.0172 17.4538C73.7095 17.4917 73.4467 17.5509 73.2289 17.6314C73.0111 17.7119 72.8442 17.8232 72.7282 17.9652C72.6122 18.1049 72.5542 18.2848 72.5542 18.505C72.5542 18.8364 72.6725 19.0933 72.9093 19.2756C73.146 19.4555 73.4431 19.5455 73.8006 19.5455ZM77.8897 20V12.7273H78.5254V15.5859H78.5822C78.6532 15.4226 78.755 15.2545 78.8876 15.0817C79.0225 14.9089 79.1989 14.7644 79.4167 14.6484C79.6369 14.5301 79.9139 14.4709 80.2477 14.4709C80.6951 14.4709 81.0881 14.5893 81.4267 14.826C81.7652 15.0604 82.0292 15.3894 82.2186 15.8132C82.408 16.2346 82.5027 16.7259 82.5027 17.2869C82.5027 17.8504 82.408 18.344 82.2186 18.7678C82.0315 19.1915 81.7688 19.5218 81.4302 19.7585C81.094 19.9953 80.7034 20.1136 80.2583 20.1136C79.9269 20.1136 79.6499 20.0545 79.4274 19.9361C79.2072 19.8177 79.0297 19.6721 78.8947 19.4993C78.7598 19.3241 78.6556 19.1536 78.5822 18.9879H78.5041V20H77.8897ZM78.5147 17.2763C78.5147 17.7166 78.5798 18.1072 78.71 18.4482C78.8426 18.7867 79.032 19.053 79.2782 19.2472C79.5268 19.4389 79.8275 19.5348 80.1802 19.5348C80.5424 19.5348 80.849 19.4354 81.1 19.2365C81.3509 19.0353 81.5415 18.7642 81.6717 18.4233C81.8019 18.0824 81.867 17.7 81.867 17.2763C81.867 16.8572 81.8019 16.4796 81.6717 16.1435C81.5439 15.8073 81.3545 15.541 81.1035 15.3445C80.8526 15.1456 80.5448 15.0462 80.1802 15.0462C79.8251 15.0462 79.5233 15.142 79.2747 15.3338C79.0285 15.5232 78.8403 15.786 78.71 16.1222C78.5798 16.456 78.5147 16.8407 78.5147 17.2763ZM84.5233 12.7273V20H83.8912V12.7273H84.5233ZM88.4011 20.1136C87.8921 20.1136 87.4518 19.9953 87.0801 19.7585C86.7084 19.5194 86.4208 19.1892 86.2172 18.7678C86.0159 18.344 85.9153 17.8563 85.9153 17.3047C85.9153 16.7554 86.0159 16.2678 86.2172 15.8416C86.4208 15.4131 86.7013 15.0781 87.0588 14.8366C87.4186 14.5928 87.8341 14.4709 88.3052 14.4709C88.6011 14.4709 88.8864 14.5253 89.161 14.6342C89.4357 14.7408 89.6819 14.9053 89.8997 15.1278C90.1199 15.348 90.2939 15.6262 90.4217 15.9624C90.5495 16.2962 90.6135 16.6915 90.6135 17.1484V17.4609H86.3521V16.9034H89.9672C89.9672 16.553 89.8961 16.2382 89.7541 15.9588C89.6144 15.6771 89.4191 15.4545 89.1681 15.2912C88.9196 15.1278 88.6319 15.0462 88.3052 15.0462C87.9596 15.0462 87.6554 15.1385 87.3926 15.3232C87.1298 15.5078 86.9238 15.7517 86.7747 16.0547C86.6279 16.3577 86.5533 16.6892 86.551 17.049V17.3828C86.551 17.8161 86.6255 18.1948 86.7747 18.5192C86.9262 18.8411 87.1404 19.0909 87.4174 19.2685C87.6944 19.446 88.0223 19.5348 88.4011 19.5348C88.6592 19.5348 88.8852 19.4946 89.0794 19.4141C89.2759 19.3336 89.4404 19.2259 89.573 19.0909C89.7079 18.9536 89.8097 18.8033 89.8784 18.6399L90.4785 18.8352C90.3957 19.0649 90.2595 19.2768 90.0701 19.4709C89.8831 19.665 89.6487 19.8213 89.367 19.9396C89.0877 20.0556 88.7657 20.1136 88.4011 20.1136ZM96.9389 20.1136C96.4678 20.1136 96.0511 19.9941 95.6889 19.755C95.3291 19.5159 95.0473 19.1856 94.8438 18.7642C94.6402 18.3404 94.5384 17.8516 94.5384 17.2976C94.5384 16.7389 94.6402 16.2476 94.8438 15.8239C95.0473 15.3977 95.3291 15.0663 95.6889 14.8295C96.0511 14.5904 96.4678 14.4709 96.9389 14.4709C97.41 14.4709 97.8255 14.5904 98.1854 14.8295C98.5452 15.0687 98.8269 15.4001 99.0305 15.8239C99.2365 16.2476 99.3395 16.7389 99.3395 17.2976C99.3395 17.8516 99.2377 18.3404 99.0341 18.7642C98.8305 19.1856 98.5476 19.5159 98.1854 19.755C97.8255 19.9941 97.41 20.1136 96.9389 20.1136ZM96.9389 19.5348C97.3177 19.5348 97.6385 19.433 97.9013 19.2294C98.1641 19.0258 98.3629 18.7547 98.4979 18.4162C98.6352 18.0777 98.7038 17.7048 98.7038 17.2976C98.7038 16.8904 98.6352 16.5163 98.4979 16.1754C98.3629 15.8345 98.1641 15.5611 97.9013 15.3551C97.6385 15.1491 97.3177 15.0462 96.9389 15.0462C96.5625 15.0462 96.2417 15.1491 95.9766 15.3551C95.7138 15.5611 95.5137 15.8345 95.3764 16.1754C95.2415 16.5163 95.174 16.8904 95.174 17.2976C95.174 17.7048 95.2415 18.0777 95.3764 18.4162C95.5137 18.7547 95.7138 19.0258 95.9766 19.2294C96.2393 19.433 96.5601 19.5348 96.9389 19.5348ZM101.359 16.5909V20H100.727V14.5455H101.341V15.4013H101.398C101.526 15.1219 101.725 14.8982 101.995 14.7301C102.267 14.5597 102.603 14.4744 103.003 14.4744C103.37 14.4744 103.692 14.5514 103.969 14.7053C104.249 14.8568 104.465 15.0805 104.619 15.3764C104.775 15.6723 104.854 16.0357 104.854 16.4666V20H104.221V16.5057C104.221 16.0582 104.096 15.7043 103.845 15.4439C103.596 15.1835 103.263 15.0533 102.844 15.0533C102.557 15.0533 102.303 15.1148 102.08 15.2379C101.858 15.361 101.681 15.5386 101.551 15.7706C101.423 16.0002 101.359 16.2737 101.359 16.5909ZM111.479 14.5455V15.0959H108.876V14.5455H111.479ZM109.689 13.2386H110.325V18.576C110.325 18.8033 110.364 18.982 110.442 19.1122C110.52 19.2401 110.622 19.3312 110.748 19.3857C110.873 19.4377 111.007 19.4638 111.149 19.4638C111.232 19.4638 111.303 19.459 111.362 19.4496C111.421 19.4377 111.473 19.4259 111.518 19.4141L111.653 19.9858C111.592 20.0095 111.516 20.0308 111.426 20.0497C111.336 20.071 111.225 20.0817 111.092 20.0817C110.86 20.0817 110.636 20.0308 110.421 19.929C110.208 19.8272 110.033 19.6757 109.895 19.4744C109.758 19.2732 109.689 19.0234 109.689 18.7251V13.2386ZM113.664 16.5909V20H113.032V12.7273H113.664V15.4013H113.721C113.849 15.1196 114.046 14.8946 114.314 14.7266C114.584 14.5585 114.925 14.4744 115.336 14.4744C115.706 14.4744 116.03 14.5502 116.309 14.7017C116.589 14.8532 116.807 15.0769 116.963 15.3729C117.119 15.6688 117.197 16.0334 117.197 16.4666V20H116.562V16.5057C116.562 16.0559 116.436 15.7019 116.185 15.4439C115.937 15.1835 115.6 15.0533 115.177 15.0533C114.885 15.0533 114.626 15.1148 114.399 15.2379C114.172 15.361 113.992 15.5386 113.859 15.7706C113.729 16.0002 113.664 16.2737 113.664 16.5909ZM121.067 20.1136C120.558 20.1136 120.118 19.9953 119.746 19.7585C119.374 19.5194 119.087 19.1892 118.883 18.7678C118.682 18.344 118.581 17.8563 118.581 17.3047C118.581 16.7554 118.682 16.2678 118.883 15.8416C119.087 15.4131 119.367 15.0781 119.725 14.8366C120.085 14.5928 120.5 14.4709 120.971 14.4709C121.267 14.4709 121.552 14.5253 121.827 14.6342C122.102 14.7408 122.348 14.9053 122.566 15.1278C122.786 15.348 122.96 15.6262 123.088 15.9624C123.216 16.2962 123.279 16.6915 123.279 17.1484V17.4609H119.018V16.9034H122.633C122.633 16.553 122.562 16.2382 122.42 15.9588C122.28 15.6771 122.085 15.4545 121.834 15.2912C121.586 15.1278 121.298 15.0462 120.971 15.0462C120.626 15.0462 120.321 15.1385 120.059 15.3232C119.796 15.5078 119.59 15.7517 119.441 16.0547C119.294 16.3577 119.219 16.6892 119.217 17.049V17.3828C119.217 17.8161 119.292 18.1948 119.441 18.5192C119.592 18.8411 119.806 19.0909 120.083 19.2685C120.36 19.446 120.688 19.5348 121.067 19.5348C121.325 19.5348 121.551 19.4946 121.745 19.4141C121.942 19.3336 122.106 19.2259 122.239 19.0909C122.374 18.9536 122.476 18.8033 122.544 18.6399L123.145 18.8352C123.062 19.0649 122.926 19.2768 122.736 19.4709C122.549 19.665 122.315 19.8213 122.033 19.9396C121.754 20.0556 121.432 20.1136 121.067 20.1136Z" fill="white"/>
<path d="M60.0611 33.0895C59.9545 32.7443 59.8075 32.4354 59.62 32.1626C59.4368 31.8857 59.2152 31.6491 58.9553 31.4531C58.6996 31.2571 58.4055 31.1101 58.0732 31.0121C57.7408 30.9098 57.3786 30.8587 56.9865 30.8587C56.2834 30.8587 55.657 31.0355 55.1072 31.3892C54.5575 31.7429 54.125 32.2628 53.8097 32.9489C53.4986 33.6307 53.343 34.4616 53.343 35.4418C53.343 36.4304 53.4986 37.2678 53.8097 37.9538C54.1207 38.6399 54.5533 39.1619 55.1072 39.5199C55.6612 39.8736 56.3047 40.0504 57.0376 40.0504C57.7024 40.0504 58.2777 39.9226 58.7635 39.6669C59.2536 39.4112 59.6307 39.049 59.8949 38.5803C60.1591 38.1072 60.2912 37.5533 60.2912 36.9183L60.8281 37.0014H57.2741V35.1477H62.5859V36.7202C62.5859 37.8409 62.3473 38.8104 61.87 39.6286C61.3928 40.4467 60.7365 41.0774 59.9013 41.5206C59.0661 41.9595 58.1072 42.179 57.0249 42.179C55.8189 42.179 54.7599 41.9084 53.848 41.3672C52.9403 40.8217 52.2308 40.0483 51.7195 39.0469C51.2124 38.0412 50.9588 36.848 50.9588 35.4673C50.9588 34.4105 51.108 33.4666 51.4062 32.6357C51.7088 31.8047 52.1307 31.0994 52.6719 30.5199C53.2131 29.9361 53.848 29.4929 54.5767 29.1903C55.3054 28.8835 56.098 28.7301 56.9545 28.7301C57.679 28.7301 58.3544 28.8366 58.9808 29.0497C59.6072 29.2585 60.1634 29.5568 60.6491 29.9446C61.1392 30.3324 61.5419 30.7926 61.8572 31.3253C62.1726 31.858 62.3793 32.446 62.4773 33.0895H60.0611ZM69.0595 42.1918C68.1007 42.1918 67.2697 41.9808 66.5666 41.5589C65.8635 41.1371 65.318 40.5469 64.9302 39.7884C64.5467 39.0298 64.3549 38.1435 64.3549 37.1293C64.3549 36.1151 64.5467 35.2266 64.9302 34.4638C65.318 33.701 65.8635 33.1087 66.5666 32.6868C67.2697 32.2649 68.1007 32.054 69.0595 32.054C70.0183 32.054 70.8493 32.2649 71.5524 32.6868C72.2555 33.1087 72.7988 33.701 73.1824 34.4638C73.5701 35.2266 73.764 36.1151 73.764 37.1293C73.764 38.1435 73.5701 39.0298 73.1824 39.7884C72.7988 40.5469 72.2555 41.1371 71.5524 41.5589C70.8493 41.9808 70.0183 42.1918 69.0595 42.1918ZM69.0723 40.3381C69.5922 40.3381 70.0268 40.1953 70.3762 39.9098C70.7257 39.62 70.9856 39.2322 71.1561 38.7464C71.3308 38.2607 71.4181 37.7195 71.4181 37.1229C71.4181 36.522 71.3308 35.9787 71.1561 35.4929C70.9856 35.0028 70.7257 34.6129 70.3762 34.3232C70.0268 34.0334 69.5922 33.8885 69.0723 33.8885C68.5396 33.8885 68.0964 34.0334 67.7427 34.3232C67.3933 34.6129 67.1312 35.0028 66.9565 35.4929C66.786 35.9787 66.7008 36.522 66.7008 37.1229C66.7008 37.7195 66.786 38.2607 66.9565 38.7464C67.1312 39.2322 67.3933 39.62 67.7427 39.9098C68.0964 40.1953 68.5396 40.3381 69.0723 40.3381ZM80.0107 42.1918C79.0518 42.1918 78.2209 41.9808 77.5178 41.5589C76.8146 41.1371 76.2692 40.5469 75.8814 39.7884C75.4979 39.0298 75.3061 38.1435 75.3061 37.1293C75.3061 36.1151 75.4979 35.2266 75.8814 34.4638C76.2692 33.701 76.8146 33.1087 77.5178 32.6868C78.2209 32.2649 79.0518 32.054 80.0107 32.054C80.9695 32.054 81.8004 32.2649 82.5036 32.6868C83.2067 33.1087 83.75 33.701 84.1335 34.4638C84.5213 35.2266 84.7152 36.1151 84.7152 37.1293C84.7152 38.1435 84.5213 39.0298 84.1335 39.7884C83.75 40.5469 83.2067 41.1371 82.5036 41.5589C81.8004 41.9808 80.9695 42.1918 80.0107 42.1918ZM80.0234 40.3381C80.5433 40.3381 80.978 40.1953 81.3274 39.9098C81.6768 39.62 81.9368 39.2322 82.1072 38.7464C82.282 38.2607 82.3693 37.7195 82.3693 37.1229C82.3693 36.522 82.282 35.9787 82.1072 35.4929C81.9368 35.0028 81.6768 34.6129 81.3274 34.3232C80.978 34.0334 80.5433 33.8885 80.0234 33.8885C79.4908 33.8885 79.0476 34.0334 78.6939 34.3232C78.3445 34.6129 78.0824 35.0028 77.9077 35.4929C77.7372 35.9787 77.652 36.522 77.652 37.1229C77.652 37.7195 77.7372 38.2607 77.9077 38.7464C78.0824 39.2322 78.3445 39.62 78.6939 39.9098C79.0476 40.1953 79.4908 40.3381 80.0234 40.3381ZM90.949 45.8864C90.1181 45.8864 89.4043 45.7734 88.8077 45.5476C88.2111 45.326 87.7317 45.0277 87.3695 44.6527C87.0073 44.2777 86.7559 43.8622 86.6152 43.4062L88.699 42.9013C88.7928 43.093 88.9292 43.2827 89.1081 43.4702C89.2871 43.6619 89.5279 43.8196 89.8304 43.9432C90.1373 44.071 90.5229 44.1349 90.9874 44.1349C91.6436 44.1349 92.187 43.9751 92.6174 43.6555C93.0478 43.3402 93.263 42.8203 93.263 42.0959V40.2358H93.1479C93.0286 40.4744 92.8539 40.7195 92.6238 40.9709C92.3979 41.2223 92.0975 41.4332 91.7225 41.6037C91.3517 41.7741 90.8851 41.8594 90.3226 41.8594C89.5684 41.8594 88.8844 41.6825 88.2708 41.3288C87.6614 40.9709 87.1756 40.4382 86.8134 39.7308C86.4554 39.0192 86.2765 38.1286 86.2765 37.0589C86.2765 35.9808 86.4554 35.071 86.8134 34.3295C87.1756 33.5838 87.6635 33.0192 88.2772 32.6357C88.8908 32.2479 89.5748 32.054 90.329 32.054C90.9043 32.054 91.3773 32.152 91.748 32.348C92.123 32.5398 92.4213 32.772 92.6429 33.0447C92.8645 33.3132 93.0328 33.5668 93.1479 33.8054H93.2757V32.1818H95.5577V42.1598C95.5577 42.9993 95.3574 43.6939 94.9569 44.2436C94.5563 44.7933 94.0087 45.2045 93.3141 45.4773C92.6195 45.75 91.8311 45.8864 90.949 45.8864ZM90.9682 40.044C91.4583 40.044 91.8759 39.9247 92.2211 39.6861C92.5662 39.4474 92.8283 39.1044 93.0073 38.657C93.1863 38.2095 93.2757 37.6726 93.2757 37.0462C93.2757 36.4283 93.1863 35.8871 93.0073 35.4226C92.8326 34.9581 92.5726 34.598 92.2275 34.3423C91.8865 34.0824 91.4668 33.9524 90.9682 33.9524C90.4526 33.9524 90.0222 34.0866 89.677 34.3551C89.3319 34.6236 89.0719 34.9922 88.8972 35.4609C88.7225 35.9254 88.6351 36.4538 88.6351 37.0462C88.6351 37.647 88.7225 38.1733 88.8972 38.625C89.0762 39.0724 89.3382 39.4219 89.6834 39.6733C90.0328 39.9205 90.4611 40.044 90.9682 40.044ZM100.243 28.9091V42H97.9292V28.9091H100.243ZM106.969 42.1918C105.985 42.1918 105.135 41.9872 104.419 41.5781C103.707 41.1648 103.159 40.581 102.776 39.8267C102.392 39.0682 102.201 38.1754 102.201 37.1484C102.201 36.1385 102.392 35.2521 102.776 34.4893C103.164 33.7223 103.705 33.1257 104.4 32.6996C105.094 32.2692 105.91 32.054 106.848 32.054C107.453 32.054 108.024 32.152 108.561 32.348C109.102 32.5398 109.579 32.8381 109.993 33.2429C110.41 33.6477 110.738 34.1634 110.977 34.7898C111.216 35.4119 111.335 36.1534 111.335 37.0142V37.7237H103.287V36.1641H109.117C109.113 35.7209 109.017 35.3267 108.829 34.9815C108.642 34.6321 108.38 34.3572 108.043 34.157C107.711 33.9567 107.323 33.8565 106.88 33.8565C106.407 33.8565 105.991 33.9716 105.633 34.2017C105.275 34.4276 104.996 34.7259 104.796 35.0966C104.6 35.4631 104.5 35.8658 104.495 36.3047V37.6662C104.495 38.2372 104.6 38.7273 104.809 39.1364C105.017 39.5412 105.309 39.8523 105.684 40.0696C106.059 40.2827 106.498 40.3892 107.001 40.3892C107.338 40.3892 107.642 40.3423 107.915 40.2486C108.188 40.1506 108.424 40.0078 108.625 39.8203C108.825 39.6328 108.976 39.4006 109.078 39.1236L111.239 39.3665C111.103 39.9375 110.843 40.4361 110.459 40.8622C110.08 41.2841 109.594 41.6122 109.002 41.8466C108.409 42.0767 107.732 42.1918 106.969 42.1918ZM117.86 42V28.9091H122.769C123.774 28.9091 124.618 29.0966 125.3 29.4716C125.986 29.8466 126.504 30.3622 126.853 31.0185C127.207 31.6705 127.384 32.4119 127.384 33.2429C127.384 34.0824 127.207 34.8281 126.853 35.4801C126.499 36.1321 125.977 36.6456 125.287 37.0206C124.597 37.3913 123.747 37.5767 122.737 37.5767H119.483V35.6271H122.417C123.005 35.6271 123.487 35.5249 123.862 35.3203C124.237 35.1158 124.514 34.8345 124.693 34.4766C124.876 34.1186 124.968 33.7074 124.968 33.2429C124.968 32.7784 124.876 32.3693 124.693 32.0156C124.514 31.6619 124.235 31.3871 123.855 31.1911C123.48 30.9908 122.997 30.8906 122.404 30.8906H120.231V42H117.86ZM131.655 28.9091V42H129.341V28.9091H131.655ZM136.86 42.1982C136.238 42.1982 135.677 42.0874 135.179 41.8658C134.684 41.6399 134.292 41.3075 134.003 40.8686C133.717 40.4297 133.574 39.8885 133.574 39.245C133.574 38.6911 133.677 38.233 133.881 37.8707C134.086 37.5085 134.365 37.2188 134.719 37.0014C135.072 36.7841 135.471 36.62 135.914 36.5092C136.361 36.3942 136.824 36.3111 137.301 36.2599C137.876 36.2003 138.343 36.147 138.701 36.1001C139.059 36.049 139.319 35.9723 139.481 35.87C139.647 35.7635 139.73 35.5994 139.73 35.3778V35.3395C139.73 34.858 139.587 34.4851 139.302 34.2209C139.016 33.9567 138.605 33.8246 138.068 33.8246C137.501 33.8246 137.052 33.9482 136.719 34.1953C136.391 34.4425 136.17 34.7344 136.055 35.071L133.894 34.7642C134.064 34.1676 134.346 33.669 134.738 33.2685C135.13 32.8636 135.609 32.5611 136.176 32.3608C136.743 32.1562 137.369 32.054 138.055 32.054C138.528 32.054 138.999 32.1094 139.468 32.2202C139.937 32.331 140.365 32.5142 140.753 32.7699C141.14 33.0213 141.452 33.3643 141.686 33.799C141.925 34.2337 142.044 34.777 142.044 35.429V42H139.819V40.6513H139.743C139.602 40.924 139.404 41.1797 139.148 41.4183C138.897 41.6527 138.579 41.8423 138.196 41.9872C137.817 42.1278 137.371 42.1982 136.86 42.1982ZM137.461 40.4979C137.925 40.4979 138.328 40.4062 138.669 40.223C139.01 40.0355 139.272 39.7884 139.455 39.4815C139.643 39.1747 139.736 38.8402 139.736 38.478V37.321C139.664 37.3807 139.54 37.4361 139.366 37.4872C139.195 37.5384 139.003 37.5831 138.79 37.6214C138.577 37.6598 138.366 37.6939 138.157 37.7237C137.949 37.7536 137.768 37.7791 137.614 37.8004C137.269 37.8473 136.96 37.924 136.687 38.0305C136.415 38.1371 136.199 38.2862 136.042 38.478C135.884 38.6655 135.805 38.9084 135.805 39.2067C135.805 39.6328 135.961 39.9545 136.272 40.1719C136.583 40.3892 136.979 40.4979 137.461 40.4979ZM145.457 45.6818C145.142 45.6818 144.85 45.6563 144.581 45.6051C144.317 45.5582 144.106 45.5028 143.949 45.4389L144.486 43.6364C144.822 43.7344 145.123 43.7813 145.387 43.777C145.651 43.7727 145.883 43.6896 146.084 43.5277C146.288 43.37 146.461 43.1058 146.601 42.7351L146.8 42.2045L143.239 32.1818H145.694L147.956 39.5966H148.059L150.328 32.1818H152.789L148.858 43.1889C148.675 43.7088 148.432 44.1541 148.129 44.5249C147.827 44.8999 147.456 45.1854 147.017 45.3814C146.582 45.5817 146.062 45.6818 145.457 45.6818Z" fill="white"/>
<defs>
<linearGradient id="paint0_linear_1_365" x1="28.2679" y1="15.8737" x2="10.868" y2="33.2736" gradientUnits="userSpaceOnUse">
<stop stop-color="#008EFF"/>
<stop offset="0.01" stop-color="#008FFF"/>
<stop offset="0.26" stop-color="#00ACFF"/>
<stop offset="0.51" stop-color="#00C0FF"/>
<stop offset="0.76" stop-color="#00CDFF"/>
<stop offset="1" stop-color="#00D1FF"/>
</linearGradient>
<linearGradient id="paint1_linear_1_365" x1="39.0264" y1="27.5809" x2="13.9406" y2="27.5809" gradientUnits="userSpaceOnUse">
<stop stop-color="#FFD800"/>
<stop offset="1" stop-color="#FF8A00"/>
</linearGradient>
<linearGradient id="paint2_linear_1_365" x1="31.4016" y1="29.9571" x2="7.81294" y2="53.5458" gradientUnits="userSpaceOnUse">
<stop stop-color="#FF3A44"/>
<stop offset="1" stop-color="#B11162"/>
</linearGradient>
<linearGradient id="paint3_linear_1_365" x1="13.227" y1="7.03017" x2="23.7679" y2="17.5624" gradientUnits="userSpaceOnUse">
<stop stop-color="#328E71"/>
<stop offset="0.07" stop-color="#2D9571"/>
<stop offset="0.48" stop-color="#15BD74"/>
<stop offset="0.8" stop-color="#06D575"/>
<stop offset="1" stop-color="#00DE76"/>
</linearGradient>
</defs>
</svg>
