<svg width="32" height="32" viewBox="0 0 32 32" fill="none" xmlns="http://www.w3.org/2000/svg">
<g id="maki:arrow">
<path id="Vector" d="M17.6917 4.8917C18.0918 4.49176 18.6343 4.26709 19.2 4.26709C19.7657 4.26709 20.3082 4.49176 20.7083 4.8917L30.3083 14.4917C30.7082 14.8918 30.9329 15.4343 30.9329 16C30.9329 16.5657 30.7082 17.1082 30.3083 17.5082L20.7083 27.1082C20.3059 27.4968 19.767 27.7119 19.2077 27.707C18.6483 27.7021 18.1132 27.4778 17.7177 27.0822C17.3222 26.6867 17.0978 26.1516 17.0929 25.5923C17.0881 25.0329 17.3031 24.4941 17.6917 24.0917L23.4667 18.1333H3.19998C2.63419 18.1333 2.09157 17.9085 1.69149 17.5085C1.29141 17.1084 1.06665 16.5658 1.06665 16C1.06665 15.4342 1.29141 14.8916 1.69149 14.4915C2.09157 14.0914 2.63419 13.8666 3.19998 13.8666H23.4667L17.6917 7.90823C17.2918 7.50818 17.0671 6.96565 17.0671 6.39997C17.0671 5.83428 17.2918 5.29176 17.6917 4.8917Z" fill="white"/>
</g>
</svg>
