<svg width="24" height="30" viewBox="0 0 24 30" fill="none" xmlns="http://www.w3.org/2000/svg">
<path d="M0.482301 1.66379C0.143815 2.06989 -0.0273578 2.58964 0.0035642 3.11741V26.0445C-0.0256081 26.5721 0.145359 27.0912 0.482301 27.4982L0.560639 27.5765L13.3995 14.7289V14.4243L0.560639 1.58545L0.482301 1.66379Z" fill="url(#paint0_linear_1_367)"/>
<path d="M17.6819 19.0114L13.3994 14.7289V14.4242L17.6819 10.1504L17.7777 10.2026L22.8523 13.0837C24.3059 13.9019 24.3059 15.2511 22.8523 16.078L17.7777 18.9591L17.6819 19.0114Z" fill="url(#paint1_linear_1_367)"/>
<path d="M17.7779 18.9591L13.4257 14.6069L0.482422 27.498C0.780764 27.7433 1.1522 27.8824 1.53827 27.8934C1.92434 27.9044 2.30312 27.7868 2.61498 27.5589L17.7518 18.9591" fill="url(#paint2_linear_1_367)"/>
<path d="M17.7779 10.2028L2.61498 1.59421C2.30646 1.35701 1.92517 1.23429 1.53622 1.24699C1.14728 1.25969 0.774805 1.40703 0.482422 1.66384L13.3996 14.581L17.7779 10.2028Z" fill="url(#paint3_linear_1_367)"/>
<path opacity="0.1" d="M17.6819 18.8638L2.61472 27.4114C2.31417 27.6353 1.94937 27.7563 1.57456 27.7563C1.19975 27.7563 0.834943 27.6353 0.534393 27.4114L0.456055 27.4897L0.534393 27.5681C0.834943 27.792 1.19975 27.913 1.57456 27.913C1.94937 27.913 2.31417 27.792 2.61472 27.5681L17.7515 18.9682L17.6819 18.8638Z" fill="black"/>
<path opacity="0.07" d="M0.48253 27.3588C0.145024 26.9488 -0.0258726 26.4267 0.00379308 25.8965V26.0445C-0.0253792 26.572 0.145588 27.0911 0.48253 27.4981L0.560868 27.4197L0.48253 27.3588Z" fill="black"/>
<path opacity="0.07" d="M22.8525 15.9217L17.6821 18.8637L17.7779 18.9595L22.8525 16.0435C23.1501 15.9126 23.4077 15.7051 23.5989 15.442C23.79 15.179 23.9079 14.8699 23.9405 14.5464C23.8811 14.8454 23.7515 15.1261 23.5623 15.3652C23.3732 15.6043 23.1299 15.7951 22.8525 15.9217Z" fill="black"/>
<path opacity="0.3" d="M2.61471 1.7509L22.8522 13.2319C23.1269 13.3554 23.3686 13.5419 23.5576 13.7763C23.7467 14.0107 23.8777 14.2864 23.9402 14.581C23.9094 14.257 23.7922 13.9471 23.6008 13.6838C23.4095 13.4204 23.1509 13.2133 22.8522 13.0839L2.61471 1.59422C1.1872 0.776016 0.00341797 1.45495 0.00341797 3.11747V3.26545C0.00341797 1.61163 1.1872 0.923989 2.61471 1.7509Z" fill="white"/>
<defs>
<linearGradient id="paint0_linear_1_367" x1="12.2679" y1="2.87369" x2="-5.13197" y2="20.2736" gradientUnits="userSpaceOnUse">
<stop stop-color="#008EFF"/>
<stop offset="0.01" stop-color="#008FFF"/>
<stop offset="0.26" stop-color="#00ACFF"/>
<stop offset="0.51" stop-color="#00C0FF"/>
<stop offset="0.76" stop-color="#00CDFF"/>
<stop offset="1" stop-color="#00D1FF"/>
</linearGradient>
<linearGradient id="paint1_linear_1_367" x1="23.0264" y1="14.5809" x2="-2.05942" y2="14.5809" gradientUnits="userSpaceOnUse">
<stop stop-color="#FFD800"/>
<stop offset="1" stop-color="#FF8A00"/>
</linearGradient>
<linearGradient id="paint2_linear_1_367" x1="15.4016" y1="16.9571" x2="-8.18706" y2="40.5458" gradientUnits="userSpaceOnUse">
<stop stop-color="#FF3A44"/>
<stop offset="1" stop-color="#B11162"/>
</linearGradient>
<linearGradient id="paint3_linear_1_367" x1="-2.77299" y1="-5.96983" x2="7.76792" y2="4.56237" gradientUnits="userSpaceOnUse">
<stop stop-color="#328E71"/>
<stop offset="0.07" stop-color="#2D9571"/>
<stop offset="0.48" stop-color="#15BD74"/>
<stop offset="0.8" stop-color="#06D575"/>
<stop offset="1" stop-color="#00DE76"/>
</linearGradient>
</defs>
</svg>
