<svg width="15" height="8" viewBox="0 0 15 8" fill="none" xmlns="http://www.w3.org/2000/svg">
<path fill-rule="evenodd" clip-rule="evenodd" d="M8.20685 7.37629C8.01933 7.56376 7.76502 7.66907 7.49985 7.66907C7.23469 7.66907 6.98038 7.56376 6.79285 7.37629L1.13585 1.71929C1.04034 1.62704 0.964162 1.5167 0.911753 1.39469C0.859344 1.27269 0.831758 1.14147 0.830604 1.00869C0.82945 0.87591 0.854752 0.744231 0.905033 0.621335C0.955314 0.498438 1.02957 0.386786 1.12346 0.292893C1.21735 0.199 1.329 0.124747 1.4519 0.0744663C1.5748 0.0241854 1.70648 -0.00111606 1.83926 3.77571e-05C1.97204 0.00119157 2.10325 0.0287779 2.22526 0.0811869C2.34726 0.133596 2.45761 0.209778 2.54985 0.305288L7.49985 5.25529L12.4499 0.305288C12.6385 0.12313 12.8911 0.0223355 13.1533 0.0246139C13.4155 0.0268924 13.6663 0.132061 13.8517 0.317469C14.0371 0.502877 14.1423 0.75369 14.1445 1.01589C14.1468 1.27808 14.046 1.53069 13.8639 1.71929L8.20685 7.37629Z" fill="#00393A"/>
</svg>
