<svg width="50" height="50" viewBox="0 0 50 50" fill="none" xmlns="http://www.w3.org/2000/svg">
<rect width="50" height="50" rx="6" fill="#00393A"/>
<path fill-rule="evenodd" clip-rule="evenodd" d="M15.6666 14.3332C15.6666 13.6259 15.9476 12.9476 16.4477 12.4476C16.9478 11.9475 17.626 11.6665 18.3333 11.6665H31.6666C32.3739 11.6665 33.0521 11.9475 33.5522 12.4476C34.0523 12.9476 34.3333 13.6259 34.3333 14.3332V35.6665C34.3333 36.3737 34.0523 37.052 33.5522 37.5521C33.0521 38.0522 32.3739 38.3332 31.6666 38.3332H18.3333C17.626 38.3332 16.9478 38.0522 16.4477 37.5521C15.9476 37.052 15.6666 36.3737 15.6666 35.6665V14.3332ZM31.6666 30.3332V15.6665H18.3333V30.3332H31.6666ZM25 31.6665C24.6463 31.6665 24.3072 31.807 24.0571 32.057C23.8071 32.3071 23.6666 32.6462 23.6666 32.9998C23.6666 33.3535 23.8071 33.6926 24.0571 33.9426C24.3072 34.1927 24.6463 34.3332 25 34.3332H25.0133C25.3669 34.3332 25.7061 34.1927 25.9561 33.9426C26.2062 33.6926 26.3466 33.3535 26.3466 32.9998C26.3466 32.6462 26.2062 32.3071 25.9561 32.057C25.7061 31.807 25.3669 31.6665 25.0133 31.6665H25Z" fill="white"/>
</svg>
